<?xml version="1.0" encoding="UTF-8"?>
<svg id="_レイヤー_1" data-name="レイヤー_1" xmlns="http://www.w3.org/2000/svg" xmlns:xlink="http://www.w3.org/1999/xlink" version="1.1" viewBox="0 0 2551.18 3169.13">
  <!-- Generator: Adobe Illustrator 30.3.0, SVG Export Plug-In . SVG Version: 2.1.3 Build 182)  -->
  <image width="750" height="1334" transform="translate(384.72) scale(2.38)" xlink:href="./IMG_3051.PNG.webp"/>
  <text/>
  <text/>
  <path d="M2364.3,89.81c-9.37,16-15.84,33.72-18.88,52.01-.88,5.27-1.49,10.59-1.82,15.92-.2,3.21,4.8,3.2,5,0,1.12-17.84,5.51-35.52,12.93-51.78,2.13-4.66,4.5-9.2,7.08-13.62,1.63-2.78-2.69-5.3-4.32-2.52h0Z"/>
  <path d="M2281.39,168.49c30.88-.3,61.77.1,92.64,1.2,8.63.31,17.26.67,25.88,1.09,3.22.16,3.21-4.84,0-5-30.85-1.49-61.73-2.29-92.62-2.38-8.63-.03-17.27,0-25.9.09-3.22.03-3.22,5.03,0,5h0Z"/>
  <path d="M2321.04,167.17c6.55,22.65,18.34,43.69,34.17,61.16,4.45,4.91,9.23,9.52,14.28,13.81,1.03.87,2.53,1.01,3.54,0,.9-.9,1.03-2.66,0-3.54-17.51-14.85-31.46-33.64-40.67-54.68-2.57-5.87-4.72-11.93-6.5-18.09-.89-3.09-5.72-1.77-4.82,1.33h0Z"/>
  <path d="M2379.84,209.46c-23.97,14.95-46.08,32.9-65.59,53.33-5.52,5.78-10.83,11.76-15.92,17.91-.86,1.04-1.02,2.52,0,3.54.89.89,2.67,1.05,3.54,0,17.83-21.55,38.34-40.9,60.98-57.33,6.35-4.61,12.86-8.99,19.52-13.14,2.72-1.7.22-6.03-2.52-4.32h0Z"/>
  <path d="M2326.49,309.24c-14.16,3.35-27.35,10.03-38.53,19.32-1.04.86-.89,2.64,0,3.54,1.03,1.03,2.49.87,3.54,0,10.51-8.74,23.03-14.89,36.33-18.03,3.13-.74,1.8-5.56-1.33-4.82h0Z"/>
  <path d="M2316.46,328.26c-2.21,16.75.62,33.98,7.72,49.28,1.99,4.28,4.33,8.39,7,12.29.76,1.11,2.2,1.61,3.42.9,1.1-.65,1.66-2.3.9-3.42-9.07-13.28-14.24-29.06-14.74-45.14-.14-4.65.1-9.3.71-13.91.18-1.34-1.28-2.5-2.5-2.5-1.5,0-2.32,1.16-2.5,2.5h0Z"/>
  <path d="M2394.3,324.62c-5.26,6.75-12.16,12.24-20.07,15.57-1.24.52-2.14,1.65-1.75,3.08.32,1.17,1.82,2.27,3.08,1.75,8.72-3.67,16.45-9.38,22.28-16.86.83-1.06,1.04-2.5,0-3.54-.86-.86-2.7-1.07-3.54,0h0Z"/>
  <path d="M2364.28,317.82c-.64,15.91.12,32.21,5.09,47.45,4.26,13.06,11.78,25.29,22.62,33.9,5.89,4.68,12.58,8.24,19.89,10.11,3.12.8,4.45-4.02,1.33-4.82-12.04-3.09-22.25-11.14-29.38-21.18-8.21-11.55-12.34-25.41-13.88-39.39-.96-8.66-1.02-17.38-.68-26.08.13-3.22-4.87-3.21-5,0h0Z"/>
  <path d="M2335.04,455.08v51.99c0,3.22,5,3.22,5,0v-51.99c0-3.22-5-3.22-5,0h0Z"/>
  <path d="M2279.31,517.88h147.64c3.22,0,3.22-5,0-5h-147.64c-3.22,0-3.22,5,0,5h0Z"/>
  <path d="M2299.69,529.94v72.78c0,3.22,5,3.22,5,0v-72.78c0-3.22-5-3.22-5,0h0Z"/>
  <path d="M2318.83,567.65c20.03.87,40.09.76,60.11-.36,5.62-.31,11.24-.71,16.86-1.18,1.35-.11,2.5-1.07,2.5-2.5,0-1.27-1.15-2.61-2.5-2.5-19.98,1.67-40.03,2.36-60.08,2.04-5.63-.09-11.26-.26-16.89-.5-3.22-.14-3.21,4.86,0,5h0Z"/>
  <path d="M2372.71,575.67c-.14,10.57-.29,21.13-.43,31.7-.07,5.24-.14,10.48-.21,15.72-.06,4.62.2,9.54-1.52,13.92-1.35,3.45-4.95,7.02-8.96,6.08-3.13-.74-4.47,4.08-1.33,4.82,4.6,1.08,9.29-.96,12.24-4.54,3.32-4.02,4.22-9.19,4.45-14.26.25-5.57.19-11.17.27-16.75l.23-17.22c.09-6.49.18-12.98.26-19.47.04-3.22-4.96-3.22-5,0h0Z"/>
  <path d="M2349.59,760.75c0,22.71,0,45.41,0,68.12,0,6.4,0,12.81,0,19.21,0,3.22,5,3.22,5,0,0-22.71,0-45.41,0-68.12,0-6.4,0-12.81,0-19.21,0-3.22-5-3.22-5,0h0Z"/>
  <path d="M2304.27,856.83c29.8,0,59.6,0,89.4,0,8.32,0,16.65,0,24.97,0,3.22,0,3.22-5,0-5-29.8,0-59.6,0-89.4,0-8.32,0-16.65,0-24.97,0-3.22,0-3.22,5,0,5h0Z"/>
  <path d="M2315.52,866.82c17.54,10.88,33.76,23.8,48.29,38.46,4.1,4.14,8.06,8.42,11.89,12.82.89,1.02,2.63.91,3.54,0,1.01-1.01.89-2.51,0-3.54-13.77-15.85-29.4-30.03-46.46-42.25-4.8-3.44-9.71-6.71-14.73-9.82-2.74-1.7-5.26,2.62-2.52,4.32h0Z"/>
  <path d="M2379.56,874.38c-15.09,8.75-30.19,17.51-45.28,26.26-15.09,8.75-30.19,17.51-45.28,26.26-8.48,4.92-16.96,9.84-25.45,14.76-2.78,1.61-.27,5.94,2.52,4.32,15.09-8.75,30.19-17.51,45.28-26.26s30.19-17.51,45.28-26.26c8.48-4.92,16.96-9.84,25.45-14.76,2.78-1.61.27-5.94-2.52-4.32h0Z"/>
  <path d="M2314.79,967.58c-6.93,9.7-13.86,19.41-20.79,29.11-.79,1.1-.19,2.78.9,3.42,1.26.73,2.63.2,3.42-.9,6.93-9.7,13.86-19.41,20.79-29.11.79-1.1.19-2.78-.9-3.42-1.26-.73-2.63-.2-3.42.9h0Z"/>
  <path d="M2278.04,1038.05c17.98-6.36,35.96-12.71,53.94-19.07,1.27-.45,2.12-1.71,1.75-3.08-.34-1.23-1.8-2.2-3.08-1.75-17.98,6.36-35.96,12.71-53.94,19.07-1.27.45-2.12,1.71-1.75,3.08.34,1.23,1.8,2.2,3.08,1.75h0Z"/>
  <path d="M2296.48,999.77c6.82,14.35,12.78,29.1,17.86,44.15,5.12,15.18,9.35,30.67,12.66,46.35,1.86,8.82,3.42,17.7,4.7,26.63.19,1.34,1.89,2.07,3.08,1.75,1.44-.4,1.94-1.73,1.75-3.08-2.28-15.94-5.48-31.74-9.62-47.31-4.14-15.56-9.19-30.88-15.13-45.84-3.38-8.51-7.03-16.9-10.96-25.17-.58-1.22-2.33-1.54-3.42-.9-1.25.73-1.48,2.2-.9,3.42h0Z"/>
  <path d="M2310.38,1043.55c-.05,15.29-4.06,30.48-11.56,43.81-2.15,3.83-4.58,7.48-7.26,10.96-.82,1.07-.16,2.8.9,3.42,1.29.75,2.59.18,3.42-.9,9.7-12.61,16.11-27.78,18.43-43.52.67-4.57,1.05-9.16,1.06-13.78.01-3.22-4.99-3.22-5,0h0Z"/>
  <path d="M2339.62,1068.88c17.34-.25,34.69-.08,52.03.51s34.66,1.6,51.94,3.02c9.71.8,19.42,1.74,29.1,2.8,1.34.15,2.5-1.25,2.5-2.5,0-1.47-1.15-2.35-2.5-2.5-17.24-1.89-34.53-3.38-51.84-4.44s-34.65-1.7-52-1.92c-9.75-.12-19.49-.11-29.24.03-3.21.05-3.22,5.05,0,5h0Z"/>
  <path d="M2392.46,986.26c5.46,18.1,10.04,36.46,13.71,55,3.64,18.4,6.38,36.98,8.2,55.65,1.03,10.6,1.76,21.23,2.21,31.88.13,3.21,5.14,3.22,5,0-.8-19.03-2.54-38.01-5.19-56.88s-6.19-37.47-10.66-55.92c-2.53-10.43-5.35-20.79-8.45-31.06-.93-3.07-5.75-1.76-4.82,1.33h0Z"/>
  <path d="M2360.15,1030.38c6.04,9.05,14.31,16.51,24.01,21.46,1.2.61,2.71.31,3.42-.9.65-1.12.31-2.8-.9-3.42-8.94-4.56-16.64-11.31-22.21-19.67-.75-1.12-2.21-1.61-3.42-.9-1.11.65-1.65,2.29-.9,3.42h0Z"/>
  <path d="M2347.29,1047.98c13.13,3.59,26.27,7.19,39.4,10.78,3.11.85,4.43-3.97,1.33-4.82-13.13-3.59-26.27-7.19-39.4-10.78-3.11-.85-4.43,3.97-1.33,4.82h0Z"/>
  <path d="M2322.17,1175.41c5.72,14.17,9.97,28.92,12.68,43.97s3.82,30.22,3.4,45.42c-.24,8.59-.96,17.17-2.21,25.67-.2,1.33.33,2.69,1.75,3.08,1.18.32,2.88-.4,3.08-1.75,2.27-15.43,3.01-31.04,2.07-46.61-.94-15.62-3.46-31.17-7.57-46.27-2.3-8.44-5.09-16.73-8.36-24.84-.5-1.25-1.67-2.13-3.08-1.75-1.19.33-2.25,1.82-1.75,3.08h0Z"/>
  <path d="M2293.6,1250.85c-7.11,20.71-16.74,40.52-28.62,58.92-3.38,5.24-6.94,10.35-10.67,15.34-.81,1.08-.18,2.79.9,3.42,1.28.75,2.61.19,3.42-.9,13.37-17.9,24.47-37.41,33.13-58,2.42-5.74,4.64-11.57,6.66-17.46.44-1.28-.5-2.73-1.75-3.08-1.37-.38-2.64.46-3.08,1.75h0Z"/>
  <path d="M2383.28,1229.04c18.68-.25,37.31,1.8,55.48,6.15,3.13.75,4.46-4.07,1.33-4.82-18.58-4.45-37.7-6.59-56.81-6.33-3.21.04-3.22,5.04,0,5h0Z"/>
  <path d="M2389.03,1242.59c-15.76,14.19-31.24,28.7-46.41,43.52s-30.15,30.06-44.76,45.55c-8.2,8.69-16.3,17.48-24.29,26.36-2.15,2.39,1.38,5.93,3.54,3.54,14.2-15.76,28.71-31.23,43.53-46.4,14.88-15.22,30.07-30.14,45.56-44.74,8.7-8.2,17.49-16.29,26.37-24.29,2.4-2.16-1.15-5.68-3.54-3.54h0Z"/>
  <path d="M2308.17,1354.78c13.3,17.79,24.36,37.3,32.65,57.92,2.37,5.89,4.51,11.87,6.44,17.92l3.67-2.82c-7.66-3.32-11.21-11.04-13.15-18.74-1.05-4.18-1.66-8.43-2.14-12.71-.7-6.25-1.36-12.51-1.95-18.77-.57-6.1-1.08-12.2-1.49-18.31s-1.06-12.16-.66-18.18c.3-4.59,1.82-8.88,5.02-12.24,2.77-2.91,6.35-5.01,10.06-6.49,4.14-1.65,8.51-2.73,12.89-3.51,5.69-1.02,11.44-1.72,17.19-2.22,12.16-1.04,24.42-1.03,36.58.03,5.44.48,11.11.87,16.38,2.35,2.17.61,4.35,1.5,6.03,3.05s2.75,3.62,3.41,5.82c1.55,5.18,1.67,10.84,2.16,16.19.57,6.19,1.07,12.38,1.5,18.57.87,12.39,1.46,24.8,1.77,37.22.16,6.29.25,12.59.27,18.88,0,3.15,0,6.29-.03,9.44-.02,2.14,0,4.31-.5,6.41-.42,1.71-1.09,3.12-2.65,3.93l3.42.9c-1.94-2.7-3.87-5.39-5.81-8.09-.79-1.1-2.18-1.62-3.42-.9-1.08.63-1.69,2.32-.9,3.42,1.94,2.7,3.87,5.39,5.81,8.09.82,1.14,2.12,1.57,3.42.9,4.55-2.35,5.49-7.85,5.61-12.5.16-6.43.07-12.87,0-19.3-.16-13.08-.62-26.17-1.39-39.23-.76-12.92-1.59-25.92-3.2-38.76-.66-5.24-1.88-10.79-5.93-14.53s-9.62-4.88-14.92-5.61c-12.72-1.76-25.58-2.42-38.41-1.88-6.38.27-12.75.83-19.08,1.67-5.32.71-10.66,1.49-15.84,2.93-8.69,2.41-17.91,6.9-22,15.44-2.67,5.58-2.68,11.74-2.39,17.79.31,6.45.75,12.89,1.27,19.32s1.17,13.19,1.86,19.78c.58,5.5,1.08,11.02,2,16.47,1.45,8.65,4.2,18.25,11.12,24.17,1.68,1.44,3.52,2.64,5.55,3.52.94.41,1.92.49,2.78-.2.76-.6,1.2-1.66.9-2.63-6.89-21.58-16.56-42.29-28.76-61.38-3.42-5.35-7.04-10.57-10.84-15.65-.81-1.08-2.16-1.63-3.42-.9-1.06.62-1.71,2.33-.9,3.42h0Z"/>
  <path d="M2422.79,1373.9c-30.27-1.63-60.55-3.25-90.82-4.88-8.54-.46-17.09-.92-25.63-1.38-3.22-.17-3.21,4.83,0,5,30.27,1.63,60.55,3.25,90.82,4.88,8.54.46,17.09.92,25.63,1.38,3.22.17,3.21-4.83,0-5h0Z"/>
  <path d="M2402,1384.16h-76.94c-3.22,0-3.22,5,0,5h76.94c3.22,0,3.22-5,0-5h0Z"/>
  <path d="M2445.67,1400.79h-74.86c-3.22,0-3.22,5,0,5h74.86c3.22,0,3.22-5,0-5h0Z"/>
  <path d="M2352.4,1463.16c-6.04,18.05-18.96,32.5-31.52,46.34-6.49,7.15-13.03,14.28-18.94,21.92-6.4,8.27-12.46,17.32-14.93,27.63s-.75,22.95,7.39,30.86c2.31,2.24,5.85-1.29,3.54-3.54-6.55-6.37-8.19-16.26-6.35-24.94,2.11-9.95,7.9-18.67,14-26.62,11.45-14.91,25.36-27.74,36.65-42.79,6.31-8.41,11.64-17.54,14.98-27.54,1.02-3.06-3.8-4.37-4.82-1.33h0Z"/>
  <path d="M2277.24,1513.96c20.94-.03,41.87-.07,62.81-.1l15.7-.03c4.16,0,9.23-.68,12.71,2.11,3.15,2.52,5.13,6.62,7.1,10.05,2.16,3.77,4.17,7.63,6.02,11.55,7.39,15.62,12.3,32.31,16.05,49.14,3.83,17.18,6.47,34.6,9.21,51.99s5.62,34.98,9.9,52.17c.52,2.1,1.07,4.19,1.63,6.28.84,3.1,5.66,1.79,4.82-1.33-4.7-17.35-7.79-35.08-10.63-52.81-2.84-17.75-5.43-35.55-9.13-53.14-3.64-17.27-8.43-34.33-15.56-50.51-1.77-4.03-3.7-7.99-5.78-11.87s-4.16-7.73-6.72-11.25c-1.33-1.83-2.79-3.47-4.64-4.79-1.94-1.38-4.24-2.05-6.58-2.36-2.46-.32-4.94-.25-7.41-.24h-7.98c-21.19.05-42.37.08-63.56.11h-7.98c-3.22.02-3.22,5.02,0,5.01h0Z"/>
  <path d="M2312.58,1555.51h64.46c3.22,0,3.22-5,0-5h-64.46c-3.22,0-3.22,5,0,5h0Z"/>
  <path d="M2276.76,1560.83c18.99,4.46,37.96,9.03,56.9,13.72,18.86,4.67,37.69,9.46,56.49,14.36,10.64,2.77,21.27,5.59,31.89,8.43,3.11.83,4.44-3.99,1.33-4.82-18.84-5.05-37.72-9.99-56.62-14.81-18.83-4.8-37.68-9.48-56.56-14.05-10.69-2.59-21.38-5.13-32.09-7.64-3.13-.73-4.47,4.09-1.33,4.82h0Z"/>
  <path d="M2336.65,1610.15c-1.15,3.04.5,6.07,2.8,8.03,2.56,2.17,5.7,3.36,8.72,4.74,7.1,3.25,14.21,6.5,21.31,9.76,14.21,6.5,28.41,13.01,42.62,19.51,8.01,3.67,16.02,7.33,24.03,11,1.23.56,2.69.35,3.42-.9.63-1.08.34-2.86-.9-3.42-27.2-12.46-54.41-24.91-81.61-37.37-3.73-1.71-7.5-3.35-11.19-5.13-1.32-.64-2.61-1.4-3.64-2.46-.85-.88-1.1-1.48-.74-2.45.48-1.26-.53-2.74-1.75-3.08-1.4-.39-2.6.48-3.08,1.75h0Z"/>
  <path d="M2312.59,1767.72c14.88-.72,29.76-1.27,44.65-1.64,7.45-.19,14.89-.33,22.34-.43,6.95-.09,13.92-.27,20.87-.11s13.98.98,19.92,4.79l-1.24-2.16c-.3,2.44-.61,4.89-.91,7.33-.17,1.34,1.27,2.5,2.5,2.5,1.49,0,2.33-1.15,2.5-2.5.3-2.44.61-4.89.91-7.33.11-.87-.56-1.72-1.24-2.16-5.57-3.57-12.12-4.87-18.63-5.3-6.96-.47-13.99-.18-20.95-.11-15.06.17-30.12.52-45.17,1.04-8.52.3-17.03.65-25.55,1.07-3.2.15-3.22,5.16,0,5h0Z"/>
  <path d="M2347.93,1798.8h33.27c3.22,0,3.22-5,0-5h-33.27c-3.22,0-3.22,5,0,5h0Z"/>
  <path d="M2322.73,1785.2c16.08,23.96,27.81,50.71,34.55,78.78,1.89,7.87,3.4,15.84,4.48,23.86.18,1.34,1.02,2.5,2.5,2.5,1.21,0,2.68-1.15,2.5-2.5-1.96-14.62-5.16-29.05-9.68-43.1s-10.28-27.66-17.2-40.67c-3.91-7.35-8.19-14.48-12.83-21.39-1.78-2.66-6.12-.16-4.32,2.52h0Z"/>
  <path d="M2343.78,1823.75c23.23,0,46.46,0,69.68,0h19.73c3.22,0,3.22-5,0-5h-69.68c-6.58,0-13.15,0-19.73,0-3.22,0-3.22,5,0,5h0Z"/>
  <path d="M2346.34,1802.02c12.26,10.38,24.27,21.04,36.02,32s23.22,22.2,34.42,33.72c6.34,6.52,12.58,13.12,18.73,19.81,2.18,2.37,5.71-1.17,3.54-3.54-10.88-11.82-22.04-23.38-33.47-34.65s-23.15-22.28-35.12-32.98c-6.77-6.06-13.63-12.02-20.57-17.89-1.03-.87-2.53-1.01-3.54,0-.89.89-1.04,2.66,0,3.54h0Z"/>
  <path d="M2326.88,1935.62c.1,16.63.21,33.27.31,49.9.02,3.22,5.02,3.22,5,0-.1-16.63-.21-33.27-.31-49.9-.02-3.22-5.02-3.22-5,0h0Z"/>
  <path d="M2243.3,1940.11c19.41,7.62,38.82,15.25,58.22,22.87,1.26.49,2.74-.54,3.08-1.75.39-1.42-.48-2.58-1.75-3.08-19.41-7.62-38.82-15.25-58.22-22.87-1.26-.49-2.74.54-3.08,1.75-.39,1.42.48,2.58,1.75,3.08h0Z"/>
  <path d="M2388.24,1921.93c-13.48,11.91-27.41,23.31-41.75,34.17-1.08.81-1.64,2.16-.9,3.42.62,1.06,2.34,1.72,3.42.9,14.69-11.11,28.96-22.76,42.76-34.95,1.01-.89.91-2.62,0-3.54-1.01-1.01-2.52-.9-3.54,0h0Z"/>
  <path d="M2291.7,1995.11c10.07,15.69,20.98,30.82,32.66,45.35l3.54-3.54c-5.09-5.23-9.91-10.73-14.41-16.48-2.12-2.71-4.16-5.48-6.13-8.3-1.05-1.5-2.08-3-3.08-4.53-.82-1.26-1.84-2.66-1.92-4.21-.05-.8.24-1.49.65-1.97.69-.81,1.6-1.34,2.59-1.76,2.4-1.01,4.84-1.2,7.37-1.39,7.19-.52,14.4-.78,21.62-.77,28.34.03,56.62,4.18,83.79,12.23,15.21,4.51,30.05,10.23,44.33,17.15l-.51-3.93c-11.3,10.62-24.31,19.34-38.4,25.81-3.96,1.82-8,3.43-12.11,4.87-1.27.45-2.12,1.71-1.75,3.08.34,1.24,1.8,2.19,3.08,1.75,15.26-5.35,29.54-13.14,42.3-23.06,3.61-2.8,7.08-5.78,10.41-8.91,1.11-1.04.93-3.23-.51-3.93-26.85-13-55.59-21.97-85.08-26.51-14.78-2.27-29.71-3.49-44.66-3.55-7.36-.03-14.72.21-22.07.74-5.26.38-12.61,1.07-15.24,6.52-1.83,3.8-.1,7.5,2.04,10.74,2.35,3.55,4.82,7.03,7.39,10.42,5.19,6.84,10.77,13.36,16.75,19.52.94.97,2.59.95,3.54,0,1.04-1.04.85-2.48,0-3.54-11.41-14.2-22.04-29.01-31.88-44.34-1.73-2.7-6.06-.2-4.32,2.52h0Z"/>
  <path d="M2382.49,2057.6c-8.72,2.43-17.96,0-25.24-5.24-3.53-2.54-6.55-5.86-8.74-9.61-1.08-1.85-1.95-3.78-2.57-5.83-.65-2.15-1.28-4.64-1.03-6.9.51-4.59,8.58-1.12,10.9-.1,4.58,2,8.74,4.88,12.27,8.42,7,7.02,11.27,16.48,11.37,26.43.12,11.55-4.92,22.88-13.67,30.42l4.18,1.1c-3.06-9.19-4.25-18.8-3.55-28.46.19-2.63-3.4-3.19-4.66-1.26-16.56,25.36-32.67,51.01-48.31,76.94-15.64,25.93-30.83,52.14-45.53,78.62-8.25,14.85-16.35,29.78-24.3,44.79-1.51,2.84,2.81,5.37,4.32,2.52,14.18-26.76,28.83-53.27,43.95-79.51,15.12-26.24,30.71-52.21,46.76-77.89,9-14.4,18.15-28.72,27.43-42.94l-4.66-1.26c-.73,10.05.54,20.23,3.73,29.79.62,1.86,2.72,2.36,4.18,1.1,8.97-7.73,14.32-19.19,15.06-30.96s-3.64-23.07-11.5-31.65c-3.8-4.15-8.45-7.65-13.54-10.06-4.6-2.18-11.73-5.22-16.46-1.82-2.9,2.09-3.2,5.56-2.8,8.85.32,2.63.93,5.18,1.92,7.64,1.96,4.89,5.02,9.28,8.89,12.85,8.73,8.04,21.3,12.1,32.93,8.86,3.1-.86,1.78-5.69-1.33-4.82h0Z"/>
  <path d="M2370.36,2097.75c-1.64,15.45,8.53,29.36,21.37,36.86,6.94,4.06,14.69,6.28,22.71,6.68,9.17.45,18.38-1.3,27.02-4.3,10.03-3.48,19.43-8.54,28.37-14.2,2.71-1.72.21-6.04-2.52-4.32-14.55,9.21-30.95,17.42-48.51,17.87-7.46.19-14.8-1.11-21.52-4.42-6.14-3.02-11.79-7.4-15.83-12.96-4.51-6.2-6.9-13.52-6.08-21.2.14-1.34-1.25-2.5-2.5-2.5-1.47,0-2.36,1.15-2.5,2.5h0Z"/>
  <path d="M2316.72,2223.72c.5,19.6,4.56,39.06,12.06,57.18.52,1.25,1.66,2.14,3.08,1.75,1.18-.32,2.27-1.82,1.75-3.08-7.33-17.72-11.39-36.68-11.88-55.85-.08-3.21-5.08-3.22-5,0h0Z"/>
  <path d="M2321.42,2225.5c25.4-.69,51.09-1.59,76.38,1.49,5.19.63,10.55,1.64,15.22,4.06s7.92,5.88,10.5,10.16,4.31,8.94,5.79,13.67c1.83,5.85,3.39,11.79,4.68,17.78,2.94,13.55,4.47,27.36,4.63,41.22.04,3.22,5.04,3.22,5,0-.16-12.86-1.48-25.71-3.95-38.34-1.22-6.24-2.72-12.43-4.51-18.54-1.54-5.26-3.26-10.51-5.74-15.41-2.41-4.76-5.64-9.09-9.91-12.33-4.54-3.45-10.1-5.32-15.65-6.36-6.04-1.14-12.23-1.61-18.35-2.04-6.56-.47-13.13-.74-19.7-.87-14.81-.29-29.62.11-44.42.51-3.21.09-3.22,5.09,0,5h0Z"/>
  <path d="M2375.12,2250.8c-20.14,1-40.28,2.01-60.42,3.01-3.2.16-3.22,5.16,0,5,20.14-1,40.28-2.01,60.42-3.01,3.2-.16,3.22-5.16,0-5h0Z"/>
  <path d="M2380.88,2261.53c-15.03-.48-30.08-.2-45.09.85-1.35.09-2.5,1.08-2.5,2.5,0,1.28,1.15,2.59,2.5,2.5,15-1.05,30.05-1.33,45.09-.85,3.22.1,3.21-4.9,0-5h0Z"/>
  <path d="M2377.05,2276.84c-13.43,0-26.86,0-40.29,0-3.22,0-3.22,5,0,5,13.43,0,26.86,0,40.29,0,3.22,0,3.22-5,0-5h0Z"/>
  <path d="M2367.7,2283.55c-3.42-11.66-5.19-23.71-5.25-35.86-.01-3.22-5.02-3.22-5,0,.06,12.57,1.89,25.13,5.43,37.19.9,3.08,5.73,1.77,4.82-1.33h0Z"/>
  <path d="M2378.82,2282.39c8.69,8.25,17.39,16.5,26.08,24.75,2.33,2.21,5.88-1.32,3.54-3.54-8.69-8.25-17.39-16.5-26.08-24.75-2.33-2.21-5.88,1.32-3.54,3.54h0Z"/>
  <path d="M2333.89,2312.54c32.42,0,64.84,0,97.26,0,9.14,0,18.29,0,27.43,0,3.22,0,3.22-5,0-5-32.42,0-64.84,0-97.26,0-9.14,0-18.29,0-27.43,0-3.22,0-3.22,5,0,5h0Z"/>
  <path d="M2338.64,2335.31c-5.29-.57-9.86,3-13.2,6.71-3.54,3.94-6.69,8.3-9.55,12.75-5.73,8.92-10.19,18.7-13.22,28.87-1.71,5.75-2.9,11.61-3.69,17.56-.18,1.34,1.28,2.5,2.5,2.5,1.5,0,2.32-1.16,2.5-2.5,2.55-19.22,10.55-37.88,22.74-52.97,2.92-3.61,6.71-8.47,11.91-7.92,1.34.14,2.5-1.25,2.5-2.5,0-1.47-1.15-2.36-2.5-2.5h0Z"/>
  <path d="M2314.58,2338.71c18.61,9.86,37.22,19.71,55.83,29.57l15.83,8.38c2.84,1.51,5.37-2.81,2.52-4.32-18.61-9.86-37.22-19.71-55.83-29.57-5.28-2.79-10.55-5.59-15.83-8.38-2.84-1.51-5.37,2.81-2.52,4.32h0Z"/>
  <path d="M2332.26,2386.03c4.47-1.93,8.95-3.85,13.42-5.78,1.21-.52,1.57-2.38.9-3.42-.81-1.25-2.13-1.45-3.42-.9-4.47,1.93-8.95,3.85-13.42,5.78-1.21.52-1.57,2.38-.9,3.42.81,1.25,2.13,1.45,3.42.9h0Z"/>
  <path d="M2329.75,2401.64c7.04-1.58,14.08-3.16,21.11-4.74,1.32-.3,2.09-1.82,1.75-3.08-.37-1.36-1.75-2.04-3.08-1.75-7.04,1.58-14.08,3.16-21.11,4.74-1.32.3-2.09,1.82-1.75,3.08.37,1.36,1.75,2.04,3.08,1.75h0Z"/>
  <path d="M2346.7,2394.45c.04,11.64.08,23.28.12,34.92,0,2.02,2.09,2.95,3.76,2.16,10.28-4.88,19.72-11.45,27.92-19.33,2.32-2.23-1.21-5.77-3.54-3.54-7.91,7.6-17,13.84-26.91,18.55l3.76,2.16c-.04-11.64-.08-23.28-.12-34.92-.01-3.22-5.01-3.22-5,0h0Z"/>
  <path d="M2373.49,2404.66c8.22,11.29,19.56,19.87,32.67,24.7,1.27.47,2.74-.52,3.08-1.75.38-1.4-.47-2.61-1.75-3.08-11.79-4.34-22.28-12.25-29.68-22.41-.79-1.09-2.17-1.63-3.42-.9-1.08.63-1.7,2.32-.9,3.42h0Z"/>
  <path d="M2332.1,2460.49c5.47,6.04,10.94,12.09,16.41,18.13.91,1,2.61.92,3.54,0,1-1,.91-2.53,0-3.54-5.47-6.04-10.94-12.09-16.41-18.13-.91-1-2.61-.92-3.54,0-1,1-.91,2.53,0,3.54h0Z"/>
  <path d="M2314.45,2504.46c14.96-3.72,29.56-8.72,43.7-14.87,1.24-.54,1.52-2.35.9-3.42-.75-1.28-2.18-1.44-3.42-.9-13.73,5.97-27.97,10.75-42.5,14.36-3.12.78-1.8,5.6,1.33,4.82h0Z"/>
  <path d="M2332.93,2515.89c7.35-.32,14.71-.64,22.06-.96,1.35-.06,2.5-1.11,2.5-2.5,0-1.31-1.14-2.56-2.5-2.5-7.35.32-14.71.64-22.06.96-1.35.06-2.5,1.11-2.5,2.5,0,1.31,1.14,2.56,2.5,2.5h0Z"/>
  <path d="M2323.98,2535.83c4.79-.67,9.58-1.33,14.38-2,1.3-.18,2.12-1.91,1.75-3.08-.46-1.43-1.68-1.94-3.08-1.75-4.79.67-9.58,1.33-14.38,2-1.3.18-2.12,1.91-1.75,3.08.46,1.43,1.68,1.94,3.08,1.75h0Z"/>
  <path d="M2331.48,2555.16c4.46-4.85,9.97-8.79,16.12-11.22.81-.32,1.63-.62,2.45-.89.18-.06,1.57-.39,1.55-.32-.05.16-1-.88-.89-.91-.08.02-.37.76-.45.91-.46.85-.94,1.69-1.44,2.53-1.9,3.22-3.99,6.33-6.29,9.28-1.05,1.34-.94,3.77,1.1,4.18,4.04.81,8.29.05,11.61-2.45,1.76-1.32,1.53-3.78-.6-4.57-3.31-1.23-7.49-2.65-9.33-5.93-.59-1.05-.84-2.56-.73-3.54.17-1.51.7-2.33,1.92-2.94s1.55-2.31.9-3.42c-.72-1.23-2.21-1.5-3.42-.9-4.58,2.28-5.28,8.25-3.38,12.53,2.24,5.03,7.9,7.25,12.71,9.03l-.6-4.57c-2.24,1.69-4.97,2.51-7.76,1.95l1.1,4.18c2.89-3.7,5.54-7.56,7.85-11.64,1.2-2.12,2.65-4.58,1.09-6.92-1.28-1.92-3.76-2.02-5.78-1.44-8.1,2.31-15.65,7.41-21.31,13.57-2.18,2.36,1.35,5.91,3.54,3.54h0Z"/>
  <path d="M2364.8,2453.24c2.19-1.8,6.11-2.41,8.63-1.03.38.21.76.41,1.12.65,0,0,.51.37.37.26-.16-.13.3.26.34.3.35.32.68.66.99,1.02.07.08.35.46.17.21.13.18.25.35.36.54.55.86.76,1.33,1,2.09.13.41.22.83.31,1.25.14.73.02-.38.04.36,0,.26.03.52.03.78.02,1.35,1.14,2.5,2.5,2.5s2.52-1.14,2.5-2.5c-.06-4.89-2.94-9.79-7.43-11.89-4.82-2.25-10.38-1.43-14.46,1.92-1.04.86-.89,2.65,0,3.54,1.03,1.03,2.49.86,3.54,0h0Z"/>
  <path d="M2405.09,2434.73c-9.44,5.68-17.22,14-22.18,23.85-.61,1.21-.32,2.71.9,3.42,1.11.65,2.81.31,3.42-.9,4.59-9.12,11.64-16.79,20.38-22.06,2.75-1.66.24-5.98-2.52-4.32h0Z"/>
  <path d="M2371.67,2475.36c7.74-5.47,16-10.16,24.65-14.01,1.23-.55,1.52-2.35.9-3.42-.74-1.27-2.18-1.45-3.42-.9-8.66,3.85-16.91,8.54-24.65,14.01-1.1.78-1.62,2.18-.9,3.42.64,1.09,2.31,1.68,3.42.9h0Z"/>
  <path d="M2369.47,2492.5c.14-.23.28-.45.43-.67.06-.08.14-.17.18-.26-.27.5-.18.23-.05.07.32-.39.66-.75,1.03-1.09.17-.16.36-.31.54-.47.23-.2-.44.31-.07.05.11-.08.21-.15.32-.23.41-.28.84-.54,1.29-.77.21-.11.43-.21.64-.31.29-.14-.59.23-.09.04.1-.04.2-.07.3-.11.47-.17.95-.31,1.44-.41.13-.03.26-.05.39-.08.09-.02.57-.08.14-.03s.08,0,.14-.01c.1,0,.21-.02.31-.03.53-.03,1.05-.03,1.58.01,1.31.1,2.56-1.22,2.5-2.5-.06-1.44-1.1-2.39-2.5-2.5-5.11-.39-10.22,2.4-12.84,6.75-.67,1.12-.29,2.8.9,3.42s2.7.3,3.42-.9h0Z"/>
  <path d="M2364.64,2514.14c13.18-7.23,26.35-14.46,39.53-21.69,2.82-1.55.3-5.87-2.52-4.32-13.18,7.23-26.35,14.46-39.53,21.69-2.82,1.55-.3,5.87,2.52,4.32h0Z"/>
  <path d="M2391.22,2477c-6.78,3.59-6.69,13.12-7.51,19.69-1.13,9.03-2.24,18.06-3.33,27.1-.62,5.17-1.24,10.35-1.85,15.53-.16,1.34,1.26,2.5,2.5,2.5,1.48,0,2.34-1.15,2.5-2.5,1-8.54,2.03-17.09,3.07-25.63.52-4.27,1.05-8.54,1.58-12.81.49-3.96.85-7.97,1.54-11.9.5-2.87,1.25-6.19,4.03-7.66s.32-5.82-2.52-4.32h0Z"/>
  <path d="M2396.77,2487.26c.88,17.78,14.8,30.24,27.66,40.68,3.98,3.23,7.97,6.46,11.7,9.98,2.34,2.2,5.88-1.32,3.54-3.54-11.91-11.22-27.25-19.87-34.68-35.06-1.84-3.76-3.01-7.87-3.22-12.07-.16-3.2-5.16-3.22-5,0h0Z"/>
  <path d="M2410.05,2475.02c.3,3.2,1.32,6.31,3.18,8.96.38.54.84.97,1.49,1.15.6.16,1.4.09,1.93-.25,1.06-.68,1.7-2.27.9-3.42-.66-.94-1.21-1.94-1.66-2.99l.25.6c-.54-1.3-.91-2.66-1.1-4.05l.09.66c-.03-.22-.05-.44-.07-.65-.06-.68-.24-1.27-.73-1.77-.43-.43-1.15-.76-1.77-.73-1.25.06-2.63,1.11-2.5,2.5h0Z"/>
  <path d="M2418.08,2490.28c-14.22,8.55-27.81,18.11-40.7,28.56-3.64,2.95-7.22,5.98-10.74,9.08-1.01.89-.91,2.62,0,3.54,1.01,1.01,2.52.89,3.54,0,12.2-10.72,25.13-20.59,38.71-29.5,3.86-2.53,7.76-4.98,11.72-7.36,2.75-1.66.24-5.98-2.52-4.32h0Z"/>
  <path d="M2386.8,2624.98c-12.63.18-25.27.24-37.9.19-6.23-.02-12.47-.08-18.7-.16-5.81-.07-11.66.02-17.46-.35-4.18-.27-9.29-1.06-11.5-5.07l.25,1.93c3.52-8.72,12.5-14.23,20.19-18.86,4.54-2.73,9.28-5.2,14.46-6.46s10.1-.79,15.04.96,9.71,4.44,14.63,6.49,9.99,3.66,15.15,4.99c10.39,2.67,21.03,4.15,31.63,5.72,11.92,1.76,23.88,3.64,35.39,7.34l-.6-4.57c-13.78,6.99-29.07,10.96-44.5,11.58-4.45.18-8.91.08-13.35-.28-1.35-.11-2.5,1.23-2.5,2.5,0,1.44,1.15,2.39,2.5,2.5,16.04,1.29,32.4-.91,47.53-6.41,4.39-1.6,8.68-3.46,12.84-5.57,2.02-1.02,1.33-3.95-.6-4.57-16.24-5.22-33.28-6.79-50.03-9.57-8.28-1.38-16.54-3.07-24.54-5.67-3.97-1.29-7.83-2.83-11.6-4.61s-7.62-3.72-11.64-5.03-8.36-1.86-12.62-1.33-8.48,1.93-12.46,3.78-7.39,3.93-10.9,6.18c-3.27,2.1-6.48,4.32-9.43,6.87-2.88,2.48-5.5,5.36-7.45,8.64-.96,1.63-2.63,4.11-1.7,5.98.79,1.58,2.09,2.9,3.49,3.95,6.01,4.47,14.76,3.71,21.81,3.83,19.11.32,38.23.37,57.35.17,2.41-.03,4.82-.06,7.23-.09,3.21-.04,3.22-5.05,0-5h0Z"/>
  <path d="M2369.2,2696.05c-9.96-.43-19.53-4.99-26.27-12.31s-10.35-18.26-9.53-28.56c.38-4.85,1.66-9.78,4.64-13.7,2.4-3.17,6.42-6.13,10.51-4.34,2.38,1.04,4.17,3.23,5.91,5.07,2.28,2.41,4.57,4.83,6.85,7.24,4.46,4.71,8.91,9.42,13.37,14.13,10.17,10.75,20.33,21.49,30.5,32.24l.51-3.93c-5.1,3.68-11.41,4.16-17.5,3.8-6.87-.41-13.72-1.66-20.39-3.32s-13.56-3.94-20.01-6.75c-3.15-1.37-6.31-2.82-9.29-4.53-2.17-1.25-4.43-2.76-5.72-4.97-3.37-5.75,3.28-11.3,7.36-14.37,1.08-.81,1.63-2.16.9-3.42-.62-1.06-2.33-1.71-3.42-.9-5.04,3.78-11.3,9.12-10.72,16.14s7.32,11.1,13.22,13.99c14.12,6.91,29.4,11.31,45.04,12.89,7.81.79,16.45.54,23.06-4.23,1.32-.95,1.69-2.67.51-3.93-9.71-10.26-19.42-20.53-29.13-30.79-4.8-5.07-9.6-10.14-14.39-15.21-2.4-2.54-4.8-5.07-7.2-7.61-2.09-2.21-4.23-4.59-7.04-5.9-5.31-2.49-10.92-.57-14.9,3.4-3.98,3.98-6.17,9.26-7.12,14.73-2,11.51.7,23.86,7.82,33.2,7.71,10.11,19.73,16.4,32.44,16.95,3.22.14,3.21-4.86,0-5h0Z"/>
  <path d="M2361.49,2662.36c-13.48-.04-26.96-.08-40.45-.12-3.23,0-3.21,4.87,0,5,9.92.41,19.84,2.61,28.95,6.6,6.15,2.7,17.1,7.64,14.16,16.23-1.19,3.46-4.38,6.13-7.37,8.03s-6.4,3.71-9.98,3.5c-1.03-.06-2.04-.41-2.42-1.39-.63-1.62.88-3.44,1.91-4.52,3.05-3.21,7.12-5.68,11.02-7.71,9.05-4.72,19.34-6.76,29.5-5.96,1.35.11,2.5-1.22,2.5-2.5,0-1.44-1.15-2.39-2.5-2.5-10.63-.84-21.38,1.37-30.93,6.08-4.6,2.28-9.38,5.2-12.98,8.9-1.93,1.98-3.62,4.54-3.65,7.39-.03,2.44,1.28,4.77,3.36,6.03,3.74,2.28,8.77.99,12.46-.7,4.4-2.01,8.57-4.94,11.5-8.83s3.98-8.8,2.15-13.33-6.04-7.84-10.32-10.2c-11.37-6.26-24.4-9.62-37.34-10.15v5c13.48.04,26.96.08,40.45.12,3.22,0,3.22-4.99,0-5h0Z"/>
  <path d="M2368.69,2731.82c.95-3.14,1.57-6.88.37-10.03-.62-1.64-1.71-3.06-3.29-3.88-2.27-1.18-4.76-.86-7.16-.31-8.79,2.05-17.34,5.19-25.45,9.13-4.6,2.24-9.04,4.77-13.32,7.57-1.13.74-1.6,2.2-.9,3.42,5.56,9.62,18.03,14.44,28.6,10.91,3.04-1.02,1.73-5.85-1.33-4.82-8.49,2.84-18.46-.82-22.96-8.61l-.9,3.42c6.63-4.34,13.69-8.07,21.06-11,3.65-1.45,7.37-2.72,11.14-3.8,1.92-.55,3.86-1.08,5.81-1.51.82-.18,1.71-.38,2.54-.2.53.11.77.29,1.01.56.65.75.79,2.04.76,3.28-.03,1.54-.36,3.01-.82,4.52-.93,3.09,3.89,4.41,4.82,1.33h0Z"/>
  <path d="M2403.16,2732.8c14.69,21.81,29.83,43.31,45.4,64.49,4.42,6.01,8.88,12,13.38,17.96.81,1.08,2.16,1.64,3.42.9,1.06-.62,1.71-2.34.9-3.42-15.83-21-31.22-42.32-46.16-63.95-4.24-6.14-8.45-12.31-12.62-18.5-1.79-2.65-6.12-.16-4.32,2.52h0Z"/>
  <path d="M109.81,29.47c.59,8.01,3.11,15.78,7.47,22.54.73,1.13,2.22,1.6,3.42.9,1.13-.66,1.63-2.28.9-3.42-3.87-6.01-6.25-12.88-6.78-20.02-.1-1.35-1.08-2.5-2.5-2.5-1.28,0-2.6,1.15-2.5,2.5h0Z"/>
  <path d="M52.7,62.83c11.51,10.89,23.45,21.33,35.79,31.28,12.38,9.98,25.15,19.49,38.28,28.48,7.42,5.08,14.95,9.98,22.59,14.73,2.74,1.7,5.26-2.62,2.52-4.32-13.4-8.32-26.48-17.15-39.18-26.5s-24.82-19.03-36.64-29.26c-6.74-5.83-13.35-11.82-19.83-17.94-2.34-2.21-5.88,1.32-3.54,3.54h0Z"/>
  <path d="M109.21,89.84c28.16,0,56.31-.01,84.47-.02h42.24c7.08-.01,14.16-.02,21.24-.01,1.04,0,2.32-.14,3.29.32.85.4.8,1.27.68,2.12-.44,3.05-1.47,6.12-2.26,9.09-3.88,14.51-8.77,28.76-14.67,42.57-.53,1.24-.37,2.68.9,3.42,1.05.62,2.89.35,3.42-.9,5.51-12.9,10.23-26.13,14.04-39.63.95-3.36,1.84-6.74,2.67-10.13.76-3.1,1.81-6.68-.47-9.42-1.93-2.32-5.06-2.45-7.85-2.44h-10.75c-29.24,0-58.48.02-87.72.02h-49.23c-3.22.01-3.22,5.01,0,5.01h0Z"/>
  <path d="M171.02,126.28c-2.49,8.8-7.89,16.75-15.29,22.17l3.67,2.82c1.19-5.91,3.41-11.5,6.64-16.59,1.57-2.48,3.35-4.79,5.35-6.93,1.87-2,4.27-4.87,7.04-5.55,2.03-.5,3.17.9,3.81,2.65.88,2.43.78,5.02.59,7.56-.42,5.57-2.09,11.08-4.69,16.01-2.98,5.65-7.17,10.66-12.36,14.4-1.09.79-1.62,2.18-.9,3.42.63,1.08,2.32,1.69,3.42.9,11.03-7.94,18.19-20.43,19.46-33.96.52-5.56.1-13.7-6.3-15.76-3.94-1.27-7.66,1.2-10.47,3.71-2.6,2.33-4.91,4.94-7,7.73-4.65,6.2-7.89,13.49-9.41,21.08-.38,1.9,1.76,4.23,3.67,2.82,8.47-6.21,14.71-15.03,17.58-25.16.88-3.1-3.94-4.43-4.82-1.33h0Z"/>
  <path d="M158.94,154.24c3.11,21.61,10,42.64,20.18,61.95,2.88,5.46,6.03,10.78,9.43,15.93,1.76,2.67,6.1.17,4.32-2.52-11.84-17.94-20.54-37.84-25.64-58.72-1.45-5.93-2.6-11.92-3.47-17.96-.19-1.34-1.89-2.07-3.08-1.75-1.44.39-1.94,1.73-1.75,3.08h0Z"/>
  <path d="M191.88,149.46c8.47-.1,16.94-.19,25.41-.29,2.06-.02,4.11-.05,6.17-.07,1.5-.01,3.25-.14,4.59.67,1.86,1.14,2.19,3.86,1.67,5.86-.92,3.6-4.23,6.19-6.93,8.49-1.03.88-.9,2.63,0,3.54,1.02,1.02,2.5.88,3.54,0,3.09-2.63,6.14-5.42,7.71-9.24,1.33-3.22,1.23-7.25-.69-10.23-2.41-3.75-6.55-4.12-10.63-4.08l-14.56.16-16.28.18c-3.22.04-3.22,5.04,0,5h0Z"/>
  <path d="M193.09,158c9.69,14.88,18.25,30.48,25.56,46.66,3.63,8.03,6.94,16.2,9.94,24.49,1.37,3.8,2.38,8.01,4.45,11.51,2.17,3.67,5.79,5.68,10.07,5.55,2.47-.07,4.9-.68,7.29-1.25,2.6-.62,5.19-1.27,7.78-1.96,5.17-1.38,10.29-2.9,15.38-4.56,3.05-.99,1.74-5.82-1.33-4.82-8.59,2.8-17.37,5.42-26.24,7.22-1.76.36-3.67.62-5.43.09-1.44-.44-2.45-1.53-3.2-2.79-1.88-3.19-2.77-7.06-4.02-10.53-5.86-16.18-12.9-31.94-21.06-47.09-4.6-8.55-9.57-16.9-14.87-25.04-1.75-2.69-6.08-.18-4.32,2.52h0Z"/>
  <path d="M160.83,269.15c-2.2,16.63-3.18,33.41-2.89,50.18.28,16.75,1.82,33.48,4.54,50.02,1.54,9.33,3.47,18.6,5.79,27.77.79,3.12,5.61,1.8,4.82-1.33-4.05-16.05-6.93-32.38-8.56-48.85-1.63-16.53-2.05-33.18-1.24-49.77.46-9.37,1.31-18.71,2.54-28.01.18-1.34-1.28-2.5-2.5-2.5-1.5,0-2.32,1.16-2.5,2.5h0Z"/>
  <path d="M195.81,327.64c13.37-2.56,27.27-1.15,39.93,3.8,1.26.49,2.74-.54,3.08-1.75.39-1.42-.48-2.58-1.75-3.08-13.51-5.28-28.36-6.52-42.59-3.8-1.33.25-2.08,1.85-1.75,3.08.38,1.39,1.74,2,3.08,1.75h0Z"/>
  <path d="M204.35,345.01c18.32,2.68,36.8,4.15,55.32,4.3,3.22.03,3.22-4.97,0-5-18.06-.15-36.12-1.51-53.99-4.13-1.33-.2-2.69.33-3.08,1.75-.32,1.18.4,2.88,1.75,3.08h0Z"/>
  <path d="M132.87,444.48c.4,17.79,3.3,35.55,8.66,52.52,1.52,4.8,3.23,9.54,5.13,14.2.51,1.25,1.66,2.13,3.08,1.75,1.18-.33,2.26-1.82,1.75-3.08-6.57-16.14-10.92-33.22-12.7-50.56-.5-4.93-.81-9.88-.92-14.84-.07-3.21-5.07-3.22-5,0h0Z"/>
  <path d="M195.12,469.78c-12.61,9.05-24.26,19.37-34.68,30.87-2.16,2.38,1.37,5.93,3.54,3.54,10.13-11.18,21.41-21.3,33.67-30.09,1.1-.79,1.62-2.18.9-3.42-.63-1.08-2.32-1.69-3.42-.9h0Z"/>
  <path d="M131.49,526.11c28.14-1.1,56.28-2.37,84.44-2.88,7.96-.14,15.93-.22,23.9-.2,3.22,0,3.22-4.99,0-5-28.22-.05-56.41,1.05-84.6,2.16-7.91.31-15.82.62-23.74.93-3.21.13-3.22,5.13,0,5h0Z"/>
  <path d="M160.47,559.41h79.37c3.22,0,3.22-5,0-5h-79.37c-3.22,0-3.22,5,0,5h0Z"/>
  <path d="M206.08,604.79c-.05-33.13-.1-66.25-.16-99.38,0-1.91.24-4.12-.75-5.85s-3.15-2.72-4.92-1.63c-1.4.86-1.81,2.69-1.31,4.18.72,2.14,3.17,2.64,4.78,1.14,2.36-2.2-1.18-5.73-3.54-3.54l.26-.21,1.26-.34.46.06,1.1.64c.35.32.51.75.45.96-.36,1.32-2.23.28-2.81,1.32l-.07-.06c-.1-.12-.09-.04.04.26.02-.17.02.3.02.27.15,1.74.01,3.55.01,5.3l.02,10.49.03,20.98.07,41.95.04,23.47c0,3.22,5.01,3.22,5,0h0Z"/>
  <path d="M258.87,614.93c-26.2-16.62-51.97-33.92-77.26-51.89-7.11-5.05-14.19-10.16-21.23-15.32-1.09-.8-2.79-.18-3.42.9-.74,1.27-.2,2.62.9,3.42,25.03,18.33,50.54,36.02,76.49,53.02,7.3,4.78,14.63,9.51,22,14.18,2.73,1.73,5.24-2.6,2.52-4.32h0Z"/>
  <path d="M91.64,518.12c15.18,18.2,29.64,36.99,43.33,56.34,3.84,5.43,7.62,10.9,11.34,16.42l1.49-3.67c-13.65,3.92-27.93,5.06-42.03,3.41-2.18-.25-3.26,2.89-1.77,4.27,7.6,7,15.66,13.5,24.12,19.43,8.02,5.62,16.44,10.49,24.95,15.31,7.44,4.21,15.14,8.79,20.44,15.67,4.24,5.5,5.94,11.96,4.59,18.58-.34,1.67-.92,3.55-1.55,4.86-.4.84-.85,1.66-1.35,2.43s-.73,1.07-1.25,1.66c-2.21,2.48-4.99,3.94-8.1,4.11s-3.23,4.88,0,5c21.71.79,43.41,1.58,65.12,2.37,21.62.79,43.25,1.57,64.87,2.36,12.23.45,24.45.89,36.68,1.34,3.22.12,3.21-4.88,0-5-21.71-.79-43.41-1.58-65.12-2.37s-43.25-1.57-64.87-2.36c-12.23-.45-24.45-.89-36.68-1.34v5c16.17-.89,21.18-21.72,15.11-34.18-4.02-8.25-11.71-14.18-19.32-18.91-8.44-5.23-17.29-9.72-25.59-15.19-10.09-6.65-19.61-14.12-28.5-22.31l-1.77,4.27c14.51,1.7,29.32.45,43.36-3.58,1.47-.42,2.42-2.31,1.49-3.67-13.4-19.87-27.6-39.2-42.54-57.94-4.24-5.32-8.55-10.6-12.91-15.83-.87-1.04-2.64-.89-3.54,0-1.03,1.03-.87,2.5,0,3.54h0Z"/>
  <path d="M73.22,464.82c4.77,3.55,9.55,7.1,14.32,10.65l1.26-4.66c-5.58.25-11.2-1.61-15.39-5.35-1.97-1.76-4.08-4.06-4.49-6.78-.27-1.77.75-4.13,2.6-4.18l-2.5-2.5c.76,7.95.62,15.95-.41,23.87-.17,1.34,1.27,2.5,2.5,2.5,1.5,0,2.33-1.15,2.5-2.5,1.03-7.92,1.17-15.92.41-23.87-.12-1.31-1.04-2.54-2.5-2.5-3.79.11-6.87,3.15-7.49,6.83-.71,4.19,1.49,8.09,4.24,11.08,5.17,5.62,12.93,8.74,20.54,8.4,2.62-.12,3.21-3.21,1.26-4.66-4.77-3.55-9.55-7.1-14.32-10.65-1.08-.81-2.79-.18-3.42.9-.75,1.27-.19,2.61.9,3.42h0Z"/>
  <path d="M172.78,750.62c-18.75,7.9-31.91,24.1-44.35,39.55-13.69,17-26.56,34.67-38.5,52.94-6.76,10.34-13.22,20.87-19.39,31.57-1.61,2.79,2.71,5.31,4.32,2.52,10.75-18.66,22.41-36.8,34.95-54.32,6.21-8.68,12.63-17.21,19.27-25.57,6.27-7.89,12.6-15.81,19.58-23.08s15.63-14.65,25.45-18.8c1.24-.52,2.14-1.65,1.75-3.08-.32-1.17-1.82-2.27-3.08-1.75h0Z"/>
  <path d="M93.99,820.31c6.78,17.23,13.57,34.45,20.35,51.68l5.75,14.6c.49,1.26,1.67,2.13,3.08,1.75,1.2-.33,2.24-1.81,1.75-3.08-6.78-17.23-13.57-34.45-20.35-51.68l-5.75-14.6c-.49-1.26-1.67-2.13-3.08-1.75-1.2.33-2.24,1.81-1.75,3.08h0Z"/>
  <path d="M110.28,846.32c15.89-6.86,31.78-13.72,47.67-20.58l47.67-20.58c9.01-3.89,18.03-7.78,27.04-11.68,1.24-.54,1.52-2.36.9-3.42-.75-1.28-2.18-1.43-3.42-.9-15.89,6.86-31.78,13.72-47.67,20.58s-31.78,13.72-47.67,20.58c-9.01,3.89-18.03,7.78-27.04,11.68-1.24.54-1.52,2.36-.9,3.42.75,1.28,2.18,1.43,3.42.9h0Z"/>
  <path d="M168.6,766.97c1.79,23.9,3.72,47.8,5.78,71.68s4.27,47.75,6.62,71.61c1.31,13.37,2.67,26.74,4.07,40.11.14,1.34,1.05,2.5,2.5,2.5,1.24,0,2.64-1.15,2.5-2.5-2.5-23.84-4.86-47.7-7.08-71.56-2.22-23.87-4.31-47.75-6.25-71.64-1.09-13.39-2.14-26.79-3.14-40.19-.1-1.35-1.08-2.5-2.5-2.5-1.27,0-2.6,1.15-2.5,2.5h0Z"/>
  <path d="M148.44,891.31c6.54-3.71,13.61-6.27,21-7.67,1.33-.25,2.08-1.85,1.75-3.08-.38-1.39-1.74-2-3.08-1.75-7.79,1.48-15.3,4.27-22.2,8.18-2.8,1.59-.28,5.91,2.52,4.32h0Z"/>
  <path d="M26,1071.97c-2.5-19.38-5.2-39.93,1.34-58.83,1.41-4.09,3.43-8.13,6.77-10.98,2.8-2.39,6.82-3.73,10.42-2.61s6.08,4.46,7.93,7.58c2.3,3.85,4.21,7.98,5.96,12.1,7.27,17.15,10.79,35.88,10.39,54.5-.38,17.72-4.43,35.31-11.86,51.4-7.23,15.63-17.41,29.83-30.01,41.56-1.57,1.46-3.17,2.88-4.81,4.26s-.31,4.35,1.77,4.27c18.84-.72,37.63-2.54,56.27-5.42,1.34-.21,2.07-1.88,1.75-3.08-.39-1.43-1.74-1.95-3.08-1.75-18.19,2.8-36.54,4.54-54.94,5.24l1.77,4.27c13.86-11.72,25.31-26.31,33.51-42.5,8.48-16.76,13.47-35.13,14.48-53.9,1.06-19.6-2.17-39.52-9.41-57.76-1.84-4.63-3.9-9.19-6.25-13.59-2.05-3.82-4.53-7.54-8.12-10.07-3.78-2.66-8.67-3.18-13.01-1.68s-8.1,4.81-10.65,8.82-4.18,8.92-5.35,13.63c-1.27,5.11-2,10.37-2.33,15.63-.66,10.37.26,20.77,1.49,31.06.31,2.62.65,5.23.98,7.84.17,1.34,1.03,2.5,2.5,2.5,1.22,0,2.67-1.15,2.5-2.5h0Z"/>
  <path d="M96.95,1020.08c-7.88,18.99-13.3,38.96-16.09,59.33-1.39,10.2-2.25,20.5-2.26,30.8-.02,9.65,1.37,19.66,7.87,27.23,2.75,3.2,6.42,5.71,10.52,6.81s8.95.77,13.07-.77c8.82-3.29,14.59-10.85,17.94-19.39,3.67-9.37,4.62-19.77,4.22-29.76-.43-10.57-2.31-21.1-4.73-31.39s-5.39-20.15-9.27-29.79c-3.52-8.75-8.86-17.61-18.49-20.41-2.18-.63-4.51-.87-6.77-.61-1.34.15-2.5,1.04-2.5,2.5,0,1.23,1.15,2.65,2.5,2.5,8.9-1.02,15.23,6.31,18.77,13.57,2.05,4.21,3.58,8.68,5.08,13.11,1.59,4.68,3.01,9.41,4.29,14.19,2.53,9.5,4.58,19.22,5.59,29s.96,19.57-1.4,29.06c-1.92,7.75-5.54,15.91-12.44,20.45-6.42,4.21-14.79,4.81-20.77-.51-6.45-5.75-8.19-14.51-8.43-22.78-.28-9.65.47-19.42,1.6-29,2.28-19.17,6.99-38.08,13.86-56.12.86-2.25,1.75-4.48,2.67-6.7.52-1.25-.56-2.75-1.75-3.08-1.44-.4-2.56.49-3.08,1.75h0Z"/>
  <path d="M142.48,1029.3c-.73.2-1.2.05-1.87-.65-.71-.74-1.17-1.85-1.2-2.83-.08-2.5,2.47-4.66,4.45-5.96,5.6-3.67,12.64-6.55,19.42-6.44,13.72.22,20.86,14.65,21.72,26.67,1.05,14.73-5.06,28.61-13.42,40.39s-19.37,22.76-30.36,32.68c-12.66,11.43-26.15,21.88-39.67,32.26-2.26,1.73-.97,5.04,1.93,4.57,21.39-3.45,42.95-5.85,64.58-7.18,6.08-.37,12.16-.66,18.25-.87,3.21-.11,3.22-5.11,0-5-21.88.75-43.72,2.57-65.42,5.47-6.26.84-12.51,1.75-18.74,2.76l1.93,4.57c13.26-10.17,26.5-20.39,38.98-31.51s23.99-22.53,33.34-35.93,15.44-28.97,13.3-45.17c-.98-7.39-3.68-14.53-8.61-20.21s-11.83-8.81-19.28-8.48c-4.05.18-8.02,1.21-11.77,2.72-3.43,1.39-6.93,3-9.91,5.23s-5.38,5.07-5.68,8.78c-.26,3.24,1.58,6.84,4.46,8.38,1.53.82,3.24,1.01,4.92.55,3.1-.84,1.79-5.66-1.33-4.82h0Z"/>
  <path d="M232,1022.4c-7.05,17.09-12.65,34.76-16.73,52.79-4.09,18.09-6.67,36.54-7.71,55.06-.51,9.16-.65,18.35-.37,27.52.24,7.76,1.55,17.13,9.38,20.92,3.28,1.58,7.05,2.03,10.43.48,3.59-1.65,5.43-5.34,5.85-9.1s-.52-7.74-1.49-11.45c-1.09-4.21-2.35-8.38-3.75-12.5-5.58-16.4-13.5-32.01-23.52-46.14-1.26-1.77-2.55-3.52-3.87-5.25-.82-1.07-2.15-1.64-3.42-.9-1.05.62-1.72,2.34-.9,3.42,9.95,13.01,18.15,27.39,24.13,42.64,2.97,7.58,5.6,15.43,7.33,23.39.62,2.85,1.19,6.4-.24,9.11-1.29,2.46-3.83,3.15-6.3,2.56-7.34-1.77-8.39-10.24-8.62-16.57-.32-8.75-.19-17.54.25-26.28.87-17.47,3.16-34.85,6.83-51.95,3.68-17.16,8.73-34.04,15.11-50.39.79-2.02,1.59-4.03,2.42-6.03.51-1.25-.56-2.75-1.75-3.08-1.44-.39-2.56.49-3.08,1.75h0Z"/>
  <path d="M105.64,1190.06c-6.75,30.76-14.64,61.27-23.66,91.44-2.56,8.55-5.21,17.08-7.95,25.58-.99,3.07,3.84,4.38,4.82,1.33,9.66-29.97,18.2-60.31,25.6-90.92,2.1-8.68,4.1-17.38,6.01-26.1.69-3.14-4.13-4.48-4.82-1.33h0Z"/>
  <path d="M99.51,1265.75c16.35-10.02,33.69-18.36,51.76-24.8,1.27-.45,2.12-1.7,1.75-3.08-.34-1.23-1.8-2.2-3.08-1.75-18.47,6.58-36.24,15.05-52.95,25.3-2.74,1.68-.23,6.01,2.52,4.32h0Z"/>
  <path d="M94.36,1286.02c16.23-3.8,32.03-9.26,47.19-16.22,1.23-.56,1.53-2.34.9-3.42-.74-1.26-2.19-1.46-3.42-.9-14.75,6.77-30.19,12.02-45.99,15.72-3.13.73-1.81,5.56,1.33,4.82h0Z"/>
  <path d="M125.52,1272.76c-.5,4.01-1.05,8.12-2.57,11.89-1.38,3.42-3.78,6.25-6.78,8.36s-6.65,3.81-10.17,5.28c-4.42,1.85-8.86,3.67-13.29,5.5-5.14,2.13-10.29,4.26-15.43,6.39-1.25.52-2.14,1.66-1.75,3.08.33,1.21,1.8,2.22,3.08,1.75,24.66-9.21,50.5-15.28,76.7-17.86,7.35-.72,14.72-1.18,22.1-1.37,3.21-.08,3.22-5.09,0-5-26.6.7-53.12,4.82-78.67,12.28-7.24,2.11-14.4,4.5-21.46,7.14l1.33,4.82c9.57-3.96,19.16-7.89,28.72-11.88,7.75-3.24,15.87-7.18,19.61-15.2,2.23-4.78,2.93-9.97,3.58-15.15.17-1.34-1.27-2.5-2.5-2.5-1.49,0-2.33,1.15-2.5,2.5h0Z"/>
  <path d="M142.28,1251.44c0,17.9,0,35.81,0,53.71v15.24c0,3.22,5,3.22,5,0,0-17.9,0-35.81,0-53.71v-15.24c0-3.22-5-3.22-5,0h0Z"/>
  <path d="M58.17,1361.46c0,28.09.02,56.17.03,84.26v23.93c0,2.49,3.4,3.39,4.67,1.26,6.2-10.44,16.05-18.89,27.53-22.98,6.1-2.17,12.74-2.9,18.72.05,5.17,2.56,9.24,6.92,12.48,11.62,7.29,10.58,12.87,23.99,11.66,37.05-1.1,11.79-8.94,21.68-18.78,27.74-13.17,8.11-29.2,9.23-44.28,8.39-3.21-.18-3.2,4.82,0,5,14.81.83,30.34-.31,43.7-7.3,11.22-5.87,20.79-16.09,23.58-28.7,3.19-14.43-2.17-29.55-9.67-41.78-3.4-5.54-7.58-10.75-12.98-14.45-5.95-4.07-12.95-5.3-20-4s-13.61,4.58-19.32,8.6-10.32,8.64-14.26,14.13c-.96,1.33-1.85,2.71-2.68,4.12l4.66,1.26c0-28.09-.02-56.17-.03-84.26v-23.93c0-3.22-5.01-3.22-5.01,0h0Z"/>
  <path d="M67.46,1418.21h58.33c3.22,0,3.22-5,0-5h-58.33c-3.22,0-3.22,5,0,5h0Z"/>
  <path d="M163.49,1493.45c-8.11,19.51-8.83,41.06-12.12,61.68s-8.31,42.24-14.69,62.78c-3.61,11.62-7.7,23.09-12.23,34.39-.5,1.25.55,2.75,1.75,3.08,1.43.39,2.57-.49,3.08-1.75,8.05-20.04,14.66-40.64,19.77-61.62,2.54-10.45,4.71-20.99,6.5-31.6s2.96-20.95,4.43-31.44c1.63-11.64,3.81-23.29,8.34-34.19.52-1.25-.56-2.75-1.75-3.08-1.44-.4-2.55.49-3.08,1.75h0Z"/>
  <path d="M163.41,1536.19c4.5-1.68,9.25-3.16,14.08-3.41,4.22-.22,8.6.53,11.43,3.93,1.76,2.12,2.5,4.88,3.13,7.51.76,3.17,1.34,6.39,1.75,9.63.83,6.63,1.06,13.31,1.14,19.98.31,27.81-.16,55.64-.59,83.45-.25,15.78-.54,31.57-.83,47.35-.06,3.22,4.94,3.22,5,0,.53-28.91,1.07-57.82,1.32-86.73.12-14.37.25-28.74.11-43.11-.06-6.83-.27-13.68-1.09-20.46-.43-3.53-.98-7.04-1.77-10.5-.67-2.95-1.49-5.99-3.1-8.58-6.87-11-21.86-7.62-31.91-3.87-1.26.47-2.13,1.69-1.75,3.08.33,1.21,1.8,2.22,3.08,1.75h0Z"/>
  <path d="M147.54,1612.73c6.89-.3,13.78-.6,20.67-.91,3.03-.13,6.18-.53,9.21-.32.68.05,1.75.28,2.24.5.25.12.47.27.71.41-.3-.18.21.24.04.05-.07-.08.05.34.03,0,.03.53.04-.26.03.38-.08,3.22,4.92,3.22,5,0,.07-3.03-2.26-5.01-4.96-5.83-3-.91-6.24-.46-9.3-.33-7.88.35-15.77.69-23.65,1.04-3.21.14-3.22,5.14,0,5h0Z"/>
  <path d="M128.51,1635.28c10.21-.04,20.42-.08,30.63-.12,4.69-.02,9.42-.2,14.11,0,3.34.15,6.87.69,9.13,3.39.87,1.04,2.64.9,3.54,0,1.03-1.03.87-2.5,0-3.54-4.36-5.21-11.89-4.91-18.05-4.89-8.38.03-16.77.06-25.15.09-4.73.02-9.46.04-14.2.05-3.22.01-3.22,5.01,0,5h0Z"/>
  <path d="M65.82,1601.61c-7.92,24.6-13.79,49.85-17.54,75.42-3.74,25.49-5.45,51.25-5,77.01.25,14.56,1.2,29.11,2.81,43.59.2,1.76,1.43,2.65,3.16,2.41,5.94-.83,11.36-4.29,15.14-8.88,4.27-5.18,6.49-11.45,7.14-18.09,1.3-13.21-3.42-27.19-10.36-38.28-3.87-6.18-8.67-11.79-14.21-16.52-1.03-.88-2.53-1.01-3.54,0-.9.9-1.03,2.66,0,3.54,8.93,7.62,15.87,17.51,19.79,28.6s5.86,25.2-1.21,35.68c-3.26,4.83-8.26,8.33-14.07,9.14l3.16,2.41c-2.85-25.53-3.58-51.29-2.2-76.94,1.38-25.59,4.86-51.05,10.43-76.06,3.13-14.07,6.91-27.98,11.33-41.7.99-3.07-3.84-4.38-4.82-1.33h0Z"/>
  <path d="M86.72,1714.12c.25,25.28-.08,50.56-1,75.83-.92,25.26-2.43,50.51-4.53,75.7-1.18,14.16-2.55,28.31-4.09,42.43-.15,1.34,1.25,2.5,2.5,2.5,1.47,0,2.35-1.15,2.5-2.5,2.75-25.13,4.93-50.32,6.51-75.55,1.58-25.23,2.58-50.5,2.99-75.78.23-14.21.27-28.42.13-42.63-.03-3.22-5.03-3.22-5,0h0Z"/>
  <path d="M110.16,1736.65c11.17-7.93,25.69-10.72,38.95-7.07,12.05,3.32,22.52,11.72,28.4,22.74,7.03,13.19,7.14,28.78,6.81,43.34-.39,16.81-1.69,33.59-3.48,50.31s-4.06,33.3-6.4,49.91c-.29,2.04-.58,4.08-.87,6.13-.19,1.34.33,2.69,1.75,3.08,1.17.32,2.88-.4,3.08-1.75,2.45-17.29,4.89-34.59,6.85-51.95,1.96-17.28,3.44-34.63,3.97-52.01.48-15.56.61-31.8-5.81-46.32-5.55-12.54-16.39-22.36-29.21-27.09-13.65-5.03-29.39-3.52-42.06,3.52-1.55.86-3.05,1.82-4.5,2.85-1.1.78-1.62,2.18-.9,3.42.64,1.09,2.31,1.68,3.42.9h0Z"/>
  <path d="M123.08,1776.31h50.19c3.22,0,3.22-5,0-5h-50.19c-3.22,0-3.22,5,0,5h0Z"/>
  <path d="M93.24,1795.3c17.63,0,35.27,0,52.9,0,3.22,0,3.22-5,0-5-17.63,0-35.27,0-52.9,0-3.22,0-3.22,5,0,5h0Z"/>
  <path d="M55.26,1978.4c13.16.01,26.32.03,39.48.04l-2.5-2.5c.4,7.44-.79,14.96-3.69,21.84-.52,1.24-.37,2.68.9,3.42,1.05.61,2.89.35,3.42-.9,3.26-7.72,4.83-15.99,4.37-24.37-.07-1.35-1.09-2.5-2.5-2.5-13.16-.01-26.32-.03-39.48-.04-3.22,0-3.22,5,0,5h0Z"/>
  <path d="M48.02,2017.16c18.26,7.6,37.29,13.29,56.73,16.95,1.33.25,2.7-.37,3.08-1.75.34-1.22-.41-2.82-1.75-3.08-19.44-3.66-38.47-9.34-56.73-16.95-1.25-.52-2.75.56-3.08,1.75-.4,1.44.49,2.55,1.75,3.08h0Z"/>
  <path d="M112.29,1959c1.47,6.76,2.95,13.51,4.42,20.27.29,1.32,1.82,2.09,3.08,1.75,1.36-.37,2.03-1.75,1.75-3.08-1.47-6.76-2.95-13.51-4.42-20.27-.29-1.32-1.82-2.09-3.08-1.75-1.36.37-2.03,1.75-1.75,3.08h0Z"/>
  <path d="M127.28,1950.83c1.27,8.53,4.74,16.73,9.98,23.58.82,1.07,2.15,1.64,3.42.9,1.05-.62,1.72-2.34.9-3.42-5.02-6.57-8.25-14.21-9.47-22.39-.2-1.34-1.89-2.07-3.08-1.75-1.43.39-1.95,1.73-1.75,3.08h0Z"/>
  <path d="M40.36,2075.05c16.53-1.74,33.29-.13,49.18,4.75,3.93,1.21,7.82,2.6,11.6,4.21,3.38,1.43,6.99,2.89,9.91,5.16,2.02,1.57,4.2,3.97,3.38,6.69-.95,3.13-4.8,4.85-7.49,6.15-8.24,4-17.46,5.73-26.58,5.25-1.35-.07-2.5,1.2-2.5,2.5,0,1.43,1.15,2.4,2.5,2.5,14.12.99,27.5,8.12,36.56,18.93,2.33,2.78,4.42,5.87,5.99,9.15s2.51,7.21.88,10.63c-1.41,2.97-4.1,5.07-6.85,6.74-3.39,2.06-7.07,3.68-10.72,5.22-9.17,3.89-18.77,6.79-28.54,8.75-1.32.27-2.09,1.84-1.75,3.08.38,1.38,1.75,2.01,3.08,1.75,9.35-1.88,18.51-4.63,27.34-8.25,4.12-1.69,8.28-3.45,12.15-5.66,3.41-1.94,6.67-4.4,8.83-7.73,5.16-7.94.57-17.29-4.39-24.04-4.68-6.37-10.63-11.75-17.46-15.76-7.65-4.5-16.27-7.18-25.12-7.8v5c9.07.47,18.14-1.19,26.49-4.75,3.71-1.58,7.83-3.47,10.42-6.68s3.06-7.41.99-11.04c-1.86-3.25-5.19-5.59-8.46-7.27-4.04-2.08-8.3-3.82-12.57-5.39-8.49-3.12-17.31-5.3-26.26-6.53-10.16-1.39-20.42-1.62-30.61-.55-1.34.14-2.5,1.05-2.5,2.5,0,1.24,1.15,2.64,2.5,2.5h0Z"/>
  <path d="M83.71,2244.5c.72,14.91,1.45,30.19-1.99,44.84-.86,3.67-1.98,7.3-3.43,10.79-1.27,3.06-2.69,6.25-5.11,8.58-1.75,1.68-4.26,2.99-6.02.64-.98-1.31-1.51-2.98-2.03-4.51-.59-1.77-1.07-3.58-1.44-5.41-1.43-7.17-.92-14.7,1.34-21.65,1.87-5.74,5.27-12.59,11.33-14.82,7.06-2.6,14.87,1.34,21.21,4.24,6.79,3.11,13.45,6.58,19.53,10.93,11.18,7.98,20.8,20.15,21.51,34.38.09,1.76.03,3.51-.15,5.26-.14,1.35,1.25,2.5,2.5,2.5,1.47,0,2.36-1.15,2.5-2.5,1.62-16.05-7.69-31.11-19.78-40.87-6.38-5.15-13.49-9.22-20.88-12.75s-15.62-7.88-23.95-6.87-13.61,7.25-16.77,14.35c-3.39,7.63-4.8,16.1-3.92,24.41.44,4.08,1.32,8.1,2.8,11.94s3.71,7.41,8.12,7.66c3.78.21,7.09-2.49,9.28-5.29,2.51-3.2,4.1-7.13,5.52-10.91,5.81-15.52,5.78-32.55,5.1-48.88-.08-2.03-.18-4.06-.28-6.09-.16-3.2-5.16-3.22-5,0h0Z"/>
  <path d="M53.39,2417.63c-1.88-4.56.38-9.02,3.68-12.27,3.81-3.76,8.9-5.7,14.09-6.61,10.79-1.91,22.01,1.76,29.65,9.57,4,4.09,6.92,9.13,8.45,14.64.86,3.1,5.69,1.78,4.82-1.33-3.27-11.74-12.1-21.5-23.48-25.87-11.68-4.48-27.08-3.2-36.53,5.54-4.74,4.38-8.15,11.26-5.51,17.66.51,1.25,1.66,2.14,3.08,1.75,1.18-.32,2.26-1.82,1.75-3.08h0Z"/>
  <path d="M41.71,2496.4c25.72,3.33,51.45,6.66,77.17,9.98,7.26.94,14.51,1.88,21.77,2.82,1.34.17,2.5-1.27,2.5-2.5,0-1.5-1.15-2.33-2.5-2.5-25.72-3.33-51.45-6.66-77.17-9.98-7.26-.94-14.51-1.88-21.77-2.82-1.34-.17-2.5,1.27-2.5,2.5,0,1.5,1.15,2.33,2.5,2.5h0Z"/>
  <path d="M51.43,2517.13c-4.06,7.85,3.22,15.04,9.01,19.39,6.65,4.99,13.83,9.29,21.36,12.8,4.4,2.05,8.91,3.85,13.52,5.38,3.06,1.02,4.37-3.81,1.33-4.82-7.14-2.38-14.02-5.43-20.57-9.12-3.27-1.84-6.45-3.84-9.54-5.98-2.86-1.99-5.77-4.02-8.12-6.62-1.96-2.18-4.22-5.53-2.68-8.51s-2.84-5.39-4.32-2.52h0Z"/>
  <path d="M112.64,2519.99c-18.22,14.24-28.41,35.94-34.09,57.87-2.94,11.36-4.99,23.1-6.06,34.8-.55,6.02-.6,12.32,1.22,18.14s5.74,10.85,11.02,14.21c6.19,3.94,13.64,5.78,20.85,6.61,7.88.91,15.93.23,23.58-1.84,3.1-.84,1.79-5.67-1.33-4.82-6.5,1.77-13.23,2.4-19.95,1.89-5.95-.46-12.13-1.77-17.52-4.4-4.9-2.4-9.07-6-11.19-11.13s-2.24-11.21-1.84-16.82c.78-10.97,2.78-22.01,5.37-32.68,2.57-10.54,6.02-20.92,11.02-30.57,5.53-10.69,12.93-20.27,22.44-27.7,1.06-.83.87-2.66,0-3.54-1.05-1.05-2.47-.83-3.54,0h0Z"/>
</svg>
