<?xml version="1.0" encoding="UTF-8" standalone="no"?>
<!-- Created with Inkscape (http://www.inkscape.org/) -->

<svg
   width="210mm"
   height="297mm"
   viewBox="0 0 210 297"
   version="1.1"
   id="svg1"
   inkscape:version="1.4.4 (dcaf3e7d9e, 2026-05-05)"
   sodipodi:docname="aone.svg"
   xml:space="preserve"
   xmlns:inkscape="http://www.inkscape.org/namespaces/inkscape"
   xmlns:sodipodi="http://sodipodi.sourceforge.net/DTD/sodipodi-0.dtd"
   xmlns:xlink="http://www.w3.org/1999/xlink"
   xmlns="http://www.w3.org/2000/svg"
   xmlns:svg="http://www.w3.org/2000/svg"><sodipodi:namedview
     id="namedview1"
     pagecolor="#ffffff"
     bordercolor="#000000"
     borderopacity="0.25"
     inkscape:showpageshadow="2"
     inkscape:pageopacity="0.0"
     inkscape:pagecheckerboard="0"
     inkscape:deskcolor="#d1d1d1"
     inkscape:document-units="mm"
     inkscape:zoom="0.64118528"
     inkscape:cx="265.13397"
     inkscape:cy="402.37979"
     inkscape:window-width="1243"
     inkscape:window-height="725"
     inkscape:window-x="0"
     inkscape:window-y="0"
     inkscape:window-maximized="1"
     inkscape:current-layer="g1"
     showguides="false" /><defs
     id="defs1" /><g
     inkscape:label="Layer 1"
     inkscape:groupmode="layer"
     id="layer1"><g
       id="g1"><rect
         style="opacity:0.99;fill:none;stroke:#d2a173;stroke-width:0.5;stroke-opacity:1;stroke-dasharray:none"
         id="rect1"
         width="91"
         height="55"
         x="14"
         y="11" /><text
         xml:space="preserve"
         style="font-style:normal;font-variant:normal;font-weight:normal;font-stretch:normal;font-size:5.64444px;font-family:IPAMonaMinchoA;-inkscape-font-specification:IPAMonaMinchoA;letter-spacing:0.0079375px;word-spacing:0px;writing-mode:lr-tb;direction:ltr;opacity:0.99;fill:#f4e3d7;stroke-width:2.429"
         x="27.882483"
         y="19.799995"
         id="text2"
         transform="skewX(-25.247305)"><tspan
           sodipodi:role="line"
           style="fill:#000000;stroke-width:2.429"
           x="27.882483"
           y="19.799995"
           id="tspan3"><tspan
             dx="0 0 0 0 0 0 0 0 0 0"
             id="tspan12"
             style="fill:#000000;stroke-width:2.429"><tspan
               style="letter-spacing:-0.619125px"
               id="tspan5">Ikiteikou</tspan><tspan
               style="letter-spacing:-0.981604px"
               id="tspan7"> </tspan><tspan
               style="letter-spacing:-0.463021px"
               id="tspan6">OS</tspan><tspan
               style="letter-spacing:-0.981604px"
               id="tspan8"> </tspan><tspan
               style="letter-spacing:-0.423333px"
               id="tspan9">v<tspan
   style="letter-spacing:-1.02129px"
   id="tspan10">.</tspan>0<tspan
   style="letter-spacing:-1.02129px"
   id="tspan11">.</tspan>0002</tspan></tspan></tspan></text><text
         xml:space="preserve"
         style="font-style:normal;font-variant:normal;font-weight:normal;font-stretch:normal;font-size:5.64444px;font-family:IPAMonaMinchoA;-inkscape-font-specification:IPAMonaMinchoA;letter-spacing:0px;word-spacing:0px;writing-mode:lr-tb;direction:ltr;opacity:0.99;fill:#000000;stroke-width:2.429"
         x="19.41161"
         y="26.061089"
         id="text13"><tspan
           sodipodi:role="line"
           id="tspan13"
           style="letter-spacing:0px;stroke-width:2.429"
           x="19.41161"
           y="26.061089">個人識別カード</tspan></text><text
         xml:space="preserve"
         style="font-size:5.64444px;font-family:IPAMonaMinchoA;-inkscape-font-specification:IPAMonaMinchoA;letter-spacing:0px;word-spacing:0px;writing-mode:lr-tb;direction:ltr;opacity:0.99;fill:#000000;stroke-width:2.429"
         x="25.531719"
         y="37.677879"
         id="text27"><tspan
           sodipodi:role="line"
           style="stroke-width:2.429"
           x="25.531719"
           y="37.677879"
           id="tspan28" /></text><text
         xml:space="preserve"
         style="font-size:2.82222px;font-family:IPAMonaMinchoA;-inkscape-font-specification:IPAMonaMinchoA;letter-spacing:0px;word-spacing:0px;writing-mode:lr-tb;direction:ltr;opacity:0.99;fill:#000000;stroke-width:2.429"
         x="21.769556"
         y="30.824528"
         id="text29"><tspan
           sodipodi:role="line"
           id="tspan29"
           style="font-size:2.82222px;stroke-width:2.429"
           x="21.769556"
           y="30.824528">百億個の名前を擦り切れるほど小さな文字で書くこと。</tspan></text><text
         xml:space="preserve"
         style="font-size:3.88056px;font-family:IPAMonaMinchoA;-inkscape-font-specification:IPAMonaMinchoA;letter-spacing:0px;word-spacing:0px;writing-mode:lr-tb;direction:ltr;opacity:0.99;fill:#000000;stroke-width:2.429"
         x="21.769556"
         y="41.733135"
         id="text29-6"><tspan
           sodipodi:role="line"
           style="font-size:3.88056px;stroke-width:2.429"
           x="21.769556"
           y="41.733135"
           id="tspan30">性別：<tspan
   style="font-style:normal;font-variant:normal;font-weight:normal;font-stretch:normal;font-family:Saitamaar;-inkscape-font-specification:Saitamaar"
   id="tspan31" /></tspan></text><text
         xml:space="preserve"
         style="font-size:2.46944px;font-family:IPAMonaMinchoA;-inkscape-font-specification:IPAMonaMinchoA;letter-spacing:0px;word-spacing:0px;writing-mode:lr-tb;direction:ltr;opacity:0.99;fill:#000000;stroke-width:2.429"
         x="53.400146"
         y="60.858852"
         id="text29-6-1-6"><tspan
           sodipodi:role="line"
           style="font-size:2.46944px;stroke-width:2.429"
           x="53.400146"
           y="60.858852"
           id="tspan127-2">以上、「何か」を証明する・・かもしれない</tspan><tspan
           sodipodi:role="line"
           style="font-size:2.46944px;stroke-width:2.429"
           x="53.400146"
           y="63.945656"
           id="tspan129">発行日　-∞ + ∞ + -∞i + ∞i </tspan><tspan
           sodipodi:role="line"
           style="font-size:2.46944px;stroke-width:2.429"
           x="53.400146"
           y="67.032455"
           id="tspan126-9" /></text><text
         xml:space="preserve"
         style="font-size:3.88056px;font-family:IPAMonaMinchoA;-inkscape-font-specification:IPAMonaMinchoA;letter-spacing:0px;word-spacing:0px;writing-mode:lr-tb;direction:ltr;opacity:0.99;fill:#000000;stroke-width:2.429"
         x="21.706835"
         y="51.833881"
         id="text29-6-1-0"><tspan
           sodipodi:role="line"
           style="font-size:3.88056px;stroke-width:2.429"
           x="21.706835"
           y="51.833881"
           id="tspan128">生年月日:  -∞ + ∞ + -∞i + ∞i </tspan><tspan
           sodipodi:role="line"
           style="font-size:3.88056px;stroke-width:2.429"
           x="21.706835"
           y="56.684582"
           id="tspan126-4" /></text><text
         xml:space="preserve"
         style="font-size:3.88056px;font-family:IPAMonaMinchoA;-inkscape-font-specification:IPAMonaMinchoA;letter-spacing:0px;word-spacing:0px;writing-mode:lr-tb;direction:ltr;opacity:0.99;fill:#000000;stroke-width:2.429"
         x="21.706835"
         y="56.92165"
         id="text29-6-1-0-3"><tspan
           sodipodi:role="line"
           style="font-size:3.88056px;stroke-width:2.429"
           x="21.706835"
           y="56.92165"
           id="tspan128-1">死亡月日:  -∞ + ∞ + -∞i + ∞i </tspan><tspan
           sodipodi:role="line"
           style="font-size:3.88056px;stroke-width:2.429"
           x="21.706835"
           y="61.77235"
           id="tspan126-4-1" /></text><text
         xml:space="preserve"
         style="font-size:3.88056px;font-family:IPAMonaMinchoA;-inkscape-font-specification:IPAMonaMinchoA;letter-spacing:0px;word-spacing:0px;writing-mode:lr-tb;direction:ltr;opacity:0.99;fill:#000000;stroke-width:2.429"
         x="21.719107"
         y="36.135601"
         id="text29-6-2"><tspan
           sodipodi:role="line"
           style="font-size:3.88056px;stroke-width:2.429"
           x="21.719107"
           y="36.135601"
           id="tspan30-4">名前：</tspan></text><text
         xml:space="preserve"
         style="font-size:3.175px;font-family:IPAMonaMinchoA;-inkscape-font-specification:IPAMonaMinchoA;letter-spacing:0px;word-spacing:0px;writing-mode:lr-tb;direction:ltr;opacity:0.99;fill:#000000;stroke-width:2.429"
         x="33.407055"
         y="46.851505"
         id="text29-6-3"><tspan
           sodipodi:role="line"
           style="font-size:3.175px;stroke-width:2.429"
           x="33.407055"
           y="46.851505"
           id="tspan30-0">その他（　　　　　　　　　          　　）</tspan></text><rect
         style="opacity:0.99;fill:none;stroke:#000000;stroke-width:0.1;stroke-dasharray:none;stroke-opacity:1"
         id="rect34"
         width="5"
         height="5"
         x="33.832096"
         y="38.070873" /><rect
         style="opacity:0.99;fill:none;stroke:#000000;stroke-width:0.1;stroke-dasharray:none;stroke-opacity:1"
         id="rect34-1"
         width="5"
         height="5"
         x="38.832096"
         y="38.070873" /><rect
         style="opacity:0.99;fill:none;stroke:#000000;stroke-width:0.1;stroke-dasharray:none;stroke-opacity:1"
         id="rect34-2"
         width="5"
         height="5"
         x="43.832096"
         y="38.070869" /><rect
         style="opacity:0.99;fill:none;stroke:#000000;stroke-width:0.1;stroke-dasharray:none;stroke-opacity:1"
         id="rect34-7"
         width="5"
         height="5"
         x="48.832096"
         y="38.070869" /><rect
         style="opacity:0.99;fill:none;stroke:#000000;stroke-width:0.1;stroke-dasharray:none;stroke-opacity:1"
         id="rect34-9"
         width="5"
         height="5"
         x="53.832096"
         y="38.070869" /><rect
         style="opacity:0.99;fill:none;stroke:#000000;stroke-width:0.1;stroke-dasharray:none;stroke-opacity:1"
         id="rect34-1-7"
         width="5"
         height="5"
         x="58.832096"
         y="38.070869" /><rect
         style="opacity:0.99;fill:none;stroke:#000000;stroke-width:0.1;stroke-dasharray:none;stroke-opacity:1"
         id="rect34-1-7-6"
         width="5"
         height="5"
         x="93.832092"
         y="38.070862" /><rect
         style="opacity:0.99;fill:none;stroke:#000000;stroke-width:0.1;stroke-dasharray:none;stroke-opacity:1"
         id="rect34-1-7-6-8"
         width="5"
         height="5"
         x="78.832092"
         y="38.070862" /><rect
         style="opacity:0.99;fill:none;stroke:#000000;stroke-width:0.1;stroke-dasharray:none;stroke-opacity:1"
         id="rect34-2-5"
         width="5"
         height="5"
         x="63.832096"
         y="38.070866" /><rect
         style="opacity:0.99;fill:none;stroke:#000000;stroke-width:0.1;stroke-dasharray:none;stroke-opacity:1"
         id="rect34-7-3"
         width="5"
         height="5"
         x="68.832092"
         y="38.070866" /><rect
         style="opacity:0.99;fill:none;stroke:#000000;stroke-width:0.1;stroke-dasharray:none;stroke-opacity:1"
         id="rect34-8"
         width="5"
         height="5"
         x="73.832092"
         y="38.070866" /><rect
         style="opacity:0.99;fill:none;stroke:#000000;stroke-width:0.1;stroke-dasharray:none;stroke-opacity:1"
         id="rect34-2-6"
         width="5"
         height="5"
         x="83.832092"
         y="38.070862" /><rect
         style="opacity:0.99;fill:none;stroke:#000000;stroke-width:0.1;stroke-dasharray:none;stroke-opacity:1"
         id="rect34-7-4"
         width="5"
         height="5"
         x="88.832092"
         y="38.070862" /><path
         style="opacity:0.99;fill:none;stroke:none;stroke-width:0.1;stroke-dasharray:none;stroke-opacity:1"
         id="path61"
         d="m 34.709997,40.166204 c 0.162496,-0.131881 0.337333,-0.224613 0.544118,-0.256169 0.255505,0.0031 0.472699,0.143361 0.68693,0.265819 0.194251,0.126949 0.364934,0.279738 0.479596,0.482242 0.100156,0.244822 0.119854,0.512948 0.107792,0.774613 -0.0083,0.126749 -0.02352,0.256246 -0.06729,0.376499 -0.004,0.01106 -0.02987,0.03355 -0.01863,0.03002 0.238554,-0.07494 0.09765,-0.108021 0.250306,-0.0498 0.02941,-0.353158 0.112856,-0.698061 0.175678,-1.046062 0.0526,-0.309359 0.181388,-0.593559 0.315828,-0.874557 0.101113,-0.175223 0.252683,-0.368903 0.473115,-0.364749 0.07178,0.02516 0.03618,0.0087 0.106071,0.05093 0.189066,0.0962 0.325112,-0.17118 0.136046,-0.267377 v 0 c -0.166684,-0.07787 -0.0792,-0.04995 -0.262747,-0.08285 -0.04984,0.0054 -0.100848,0.0042 -0.149513,0.01622 -0.261805,0.06473 -0.447246,0.296635 -0.573693,0.518557 -0.145471,0.305202 -0.283279,0.614839 -0.340342,0.950561 -0.06734,0.373454 -0.160456,0.743889 -0.179406,1.124265 0.03059,0.07196 0.02215,0.180332 0.09178,0.215894 0.305937,0.156221 0.336238,-0.459017 0.342561,-0.585464 0.01135,-0.319048 -0.01349,-0.643544 -0.148275,-0.937618 -0.145989,-0.245819 -0.347467,-0.439433 -0.59,-0.591777 -0.274912,-0.157126 -0.55545,-0.321287 -0.884499,-0.301385 -0.247764,0.04291 -0.46618,0.142375 -0.661829,0.302578 -0.176503,0.117668 -0.01011,0.367284 0.16641,0.249613 z" /><path
         style="opacity:0.99;fill:#000000;fill-opacity:1;stroke:none;stroke-width:0.1;stroke-dasharray:none;stroke-opacity:1"
         id="path73"
         d="m 37.7645,40.382144 c -0.319884,0.126862 -0.62606,0.286157 -0.931979,0.443063 -0.32643,0.164206 -0.641824,0.350904 -0.977011,0.497086 -0.182134,0.07377 -0.376436,0.118007 -0.566634,0.05248 -0.0021,-0.0065 -0.0094,-0.01339 -0.0064,-0.01955 0.0061,-0.01259 0.02556,0.01664 0.03942,0.0146 7.94e-4,-1.24e-4 0.118211,-0.111017 0.135814,-0.125804 0.145978,-0.107712 0.227184,-0.149402 0.405455,-0.112353 0.288967,0.114927 0.548277,0.291669 0.802854,0.467675 0.135705,0.103725 0.07125,0.05222 0.193794,0.153961 0.163357,0.135329 0.354743,-0.09569 0.191387,-0.231024 v 0 c -0.135689,-0.112188 -0.06432,-0.05541 -0.214607,-0.169727 -0.289946,-0.200348 -0.586507,-0.404302 -0.923379,-0.516681 -0.04575,-0.0067 -0.09107,-0.01775 -0.137242,-0.02021 -0.195292,-0.01037 -0.364438,0.08809 -0.514591,0.20153 -0.158557,0.140071 -0.367141,0.358254 -0.168812,0.570286 0.02982,0.03188 0.07201,0.04935 0.108016,0.07402 0.277111,0.07984 0.509791,0.04415 0.77525,-0.06435 0.340471,-0.149503 0.662281,-0.336817 0.993653,-0.504986 0.297577,-0.152684 0.595326,-0.30793 0.906466,-0.431449 0.196958,-0.07878 0.08554,-0.357325 -0.111419,-0.278542 z" /><path
         style="opacity:0.99;fill:#000000;fill-opacity:1;stroke:none;stroke-width:0.1;stroke-dasharray:none;stroke-opacity:1"
         id="path74"
         d="m 41.208811,42.278796 c 0.04516,-0.275397 0.115269,-0.547581 0.199964,-0.813355 0.09801,-0.322742 0.265182,-0.609616 0.471141,-0.873742 0.06658,-0.06003 0.11724,-0.173058 0.206735,-0.208404 0.0075,-0.0029 0.04937,0.04208 0.06794,0.05895 0.06831,0.07064 0.14886,0.142558 0.187868,0.235527 0.01841,0.04386 0.0061,0.03314 -0.01217,0.02527 -0.0047,-0.004 -0.0081,-0.0132 -0.01405,-0.01188 -0.01598,0.0035 -0.0279,0.01722 -0.04256,0.02447 -0.02088,0.01035 -0.04221,0.01982 -0.06392,0.02829 -0.07261,0.02833 -0.1467,0.04517 -0.222858,0.0603 -0.06342,0.01892 -0.290388,0.0029 -0.326771,0.05726 -0.03716,0.05551 -0.03897,0.127781 -0.05846,0.19167 0.03493,0.13222 0.187343,0.150235 0.257133,0.248385 0.03253,-0.02371 0.0062,0.02909 0.0028,0.02241 -0.02904,-0.05649 0.0021,-0.04944 -0.06809,-0.01834 -0.102145,0.02938 -0.208653,0.04444 -0.313563,0.06235 -0.209095,0.03578 -0.158498,0.33148 0.0506,0.295703 v 0 c 0.136368,-0.02339 0.276709,-0.04004 0.404955,-0.09378 0.185769,-0.106595 0.294063,-0.261321 0.151548,-0.463024 -0.01627,-0.01802 -0.03123,-0.03727 -0.04879,-0.05403 -0.007,-0.0066 -0.142864,-0.107698 -0.149965,-0.103359 -0.0063,0.0039 0.0013,0.01471 0.0021,0.02207 -0.02392,0.04823 -0.03818,0.1026 -0.07174,0.144682 -0.01077,0.01349 -0.0496,-0.008 -0.05097,0.0092 -0.0013,0.01677 0.03363,-0.0013 0.05043,-0.0024 0.07655,-0.0044 0.153017,-0.01101 0.228531,-0.02482 0.167349,-0.03457 0.378127,-0.0793 0.498232,-0.212799 0.03237,-0.03597 0.05282,-0.08109 0.07923,-0.121639 0.0036,-0.04527 0.01532,-0.09061 0.01074,-0.135792 -0.01725,-0.170921 -0.206068,-0.334897 -0.323072,-0.441307 -0.103434,-0.0555 -0.145085,-0.09795 -0.269293,-0.08582 -0.182285,0.01781 -0.290796,0.181086 -0.399373,0.306676 -0.226957,0.292663 -0.411615,0.610618 -0.520285,0.967247 -0.08572,0.271802 -0.15966,0.549728 -0.205025,0.831234 -0.05145,0.205798 0.239593,0.278559 0.291041,0.07276 z" /><path
         style="opacity:0.99;fill:#000000;fill-opacity:1;stroke:none;stroke-width:0.1;stroke-dasharray:none;stroke-opacity:1"
         id="path76"
         d="m 50.164565,39.549402 c -0.03132,0.1035 -0.04055,0.211643 -0.04714,0.31903 -0.0062,0.129608 -0.0062,0.259397 -0.0064,0.38912 -6.9e-5,0.116869 1.37e-4,0.23374 2.3e-4,0.35061 -0.0081,0.132982 0.01103,0.26091 0.05436,0.386304 0.06306,0.15615 0.191725,0.224706 0.34789,0.261644 0.172535,0.03566 0.290475,0.01834 0.446609,-0.06057 0.153024,-0.08562 0.203596,-0.229703 0.213404,-0.39565 -0.0083,-0.163338 -0.08131,-0.291888 -0.194444,-0.404897 -0.09351,-0.09911 -0.218128,-0.133241 -0.341159,-0.177035 -0.02127,0.0083 -0.185891,-0.09174 -0.136827,-0.06134 0.0069,0.01212 0.01373,0.02421 0.02061,0.03632 0.0011,0.01495 -0.0033,0.03131 0.0032,0.04483 0.0024,0.0051 0.0086,-0.0075 0.01294,-0.01106 0.0074,-0.0061 0.01497,-0.01204 0.02246,-0.01805 0.05059,-0.0408 0.0241,-0.02172 0.0764,-0.05568 0.07004,-0.06218 0.142991,-0.09182 0.233825,-0.103759 0.106749,-0.01246 0.213175,-0.01677 0.317246,0.01278 0.04713,0.01617 0.08217,0.04852 0.113329,0.08611 0.143296,0.156417 0.364503,-0.04623 0.221208,-0.202649 v 0 c -0.07421,-0.07763 -0.15385,-0.144002 -0.259734,-0.17398 -0.143894,-0.035 -0.288867,-0.04003 -0.435792,-0.01905 -0.132856,0.0209 -0.253223,0.06267 -0.357167,0.15139 -0.110699,0.07572 -0.244975,0.171868 -0.246001,0.322796 -2.28e-4,0.03312 0.0182,0.06369 0.02729,0.09553 0.08294,0.103856 0.165412,0.138657 0.288975,0.179339 0.08264,0.02804 0.167772,0.04408 0.231304,0.109781 0.05627,0.0497 0.09048,0.105217 0.102481,0.180248 0.0031,0.05398 -0.0013,0.105442 -0.04972,0.136734 -0.09352,0.04817 -0.135258,0.05829 -0.246129,0.03484 -0.05494,-0.01024 -0.100592,-0.01442 -0.128921,-0.06745 -0.03311,-0.09364 -0.04485,-0.18787 -0.03761,-0.287702 -9.2e-5,-0.116592 -2.64e-4,-0.233186 -2.3e-4,-0.349777 2.43e-4,-0.123923 2.06e-4,-0.247909 0.0059,-0.371734 0.0048,-0.0813 0.01072,-0.163245 0.03228,-0.242144 0.06708,-0.201245 -0.217522,-0.296114 -0.284604,-0.09487 z" /><path
         style="opacity:0.99;fill:#000000;fill-opacity:1;stroke:none;stroke-width:0.1;stroke-dasharray:none;stroke-opacity:1"
         id="path77"
         d="m 50.835274,41.160482 c 0.01294,0.168778 0.04166,0.335359 0.06752,0.502449 0.04951,0.227042 0.183184,0.350361 0.382629,0.451392 0.169485,0.06859 0.346504,0.100293 0.527289,0.07214 0.221937,-0.07657 0.301349,-0.231947 0.331922,-0.452358 0.01495,-0.174496 -0.03655,-0.335294 -0.107696,-0.491427 -0.06069,-0.104489 -0.103505,-0.189164 -0.0908,-0.311245 0.0088,-0.06276 0.03421,-0.260141 0.111342,-0.278244 0.0781,0.0092 0.154641,0.02222 0.227362,0.05376 0.007,0.0055 0.01389,0.0109 0.02085,0.01635 0.178943,0.113932 0.340064,-0.139129 0.161123,-0.253061 v 0 c -0.02352,-0.01394 -0.04706,-0.0279 -0.07058,-0.04185 -0.169048,-0.06465 -0.351854,-0.103936 -0.520005,-0.01426 -0.02424,0.0208 -0.05109,0.03888 -0.0727,0.06239 -0.107371,0.116792 -0.138436,0.284959 -0.156811,0.436171 -0.0072,0.172463 0.02648,0.307536 0.117303,0.454567 0.04867,0.106405 0.09112,0.213887 0.08243,0.333857 -0.0035,0.07381 -0.02119,0.148534 -0.08737,0.190177 -0.113763,0.0278 -0.232534,-0.01225 -0.341032,-0.04606 -0.103531,-0.04883 -0.192627,-0.109249 -0.218792,-0.228206 -0.02355,-0.151979 -0.04922,-0.303382 -0.06399,-0.456544 0,-0.212132 -0.299998,-0.212132 -0.299998,0 z" /><path
         style="opacity:0.99;fill:#000000;fill-opacity:1;stroke:none;stroke-width:0.1;stroke-dasharray:none;stroke-opacity:1"
         id="path78"
         d="m 54.775062,39.982231 c 0.06965,-0.06958 0.145749,-0.132098 0.219552,-0.197331 0.0875,-0.07276 0.17319,-0.149294 0.269044,-0.211164 0.08057,-0.05447 0.154458,-0.120134 0.240919,-0.165235 0.08289,-0.05287 0.17254,-0.09466 0.262194,-0.134787 0.08286,-0.03949 0.165851,-0.08906 0.259969,-0.08619 0.07546,0.0049 0.147002,0.039 0.214323,0.07167 0.0766,0.03838 0.158671,0.06875 0.228237,0.119417 0.174954,0.119967 0.344612,-0.127452 0.169659,-0.247417 v 0 c -0.08488,-0.05641 -0.176112,-0.100788 -0.268904,-0.142851 -0.109487,-0.05146 -0.223763,-0.09966 -0.346794,-0.100796 -0.136295,0.004 -0.260245,0.0476 -0.379715,0.112641 -0.09619,0.04356 -0.192936,0.0882 -0.282236,0.144733 -0.0927,0.05158 -0.176906,0.115792 -0.262538,0.178191 -0.106873,0.07121 -0.205494,0.153974 -0.303078,0.23722 -0.07816,0.06937 -0.158998,0.135702 -0.232764,0.209767 -0.15,0.15 0.06213,0.362133 0.212132,0.212132 z" /><path
         style="opacity:0.99;fill:#000000;fill-opacity:1;stroke:none;stroke-width:0.1;stroke-dasharray:none;stroke-opacity:1"
         id="path79"
         d="m 55.534025,41.39712 c 0.123539,-0.08175 0.252325,-0.15431 0.379383,-0.230161 0.100711,-0.05049 0.197202,-0.110641 0.300252,-0.156371 0.101449,-0.054 0.209267,-0.09056 0.317183,-0.128572 0.05351,-0.01146 0.189386,-0.07799 0.238982,-0.04507 0.06476,0.04726 0.123425,0.101722 0.1774,0.160806 0.144452,0.15535 0.364149,-0.04893 0.2197,-0.204285 v 0 C 57.071665,40.692291 56.96935,40.591 56.83541,40.544201 c -0.14773,-0.02522 -0.265285,0.0045 -0.404509,0.05495 -0.115842,0.04108 -0.231767,0.08074 -0.340976,0.138141 -0.112927,0.05184 -0.220435,0.115197 -0.330695,0.172315 -0.130908,0.07876 -0.264154,0.153353 -0.391615,0.237895 -0.176503,0.117671 -0.01011,0.367287 0.16641,0.249616 z" /><path
         style="opacity:0.99;fill:#000000;fill-opacity:1;stroke:none;stroke-width:0.1;stroke-dasharray:none;stroke-opacity:1"
         id="path80"
         d="m 56.752383,42.55532 c 0.08914,-0.0914 0.183539,-0.177379 0.281218,-0.259545 0.0687,-0.04477 0.137237,-0.09423 0.216509,-0.118248 0.08653,-0.02479 0.161165,-0.04429 0.247983,-0.01762 0.112847,0.0428 0.206663,0.118827 0.301567,0.190968 0.168886,0.128365 0.350422,-0.110477 0.181536,-0.238842 v 0 c -0.126603,-0.09622 -0.2545,-0.193693 -0.408266,-0.242641 -0.156448,-0.03676 -0.266604,-0.02249 -0.417557,0.02349 -0.114009,0.03963 -0.217953,0.101896 -0.314957,0.173376 -0.104172,0.08773 -0.204936,0.179525 -0.300165,0.276931 -0.15,0.15 0.06213,0.362133 0.212132,0.212133 z" /><path
         style="opacity:0.99;fill:#000000;fill-opacity:1;stroke:none;stroke-width:0.1;stroke-dasharray:none;stroke-opacity:1"
         id="path81"
         d="m 45.182639,41.401978 c -0.07691,0.0543 -0.146035,0.118586 -0.214525,0.182911 -0.09786,0.101444 -0.159948,0.226727 -0.202332,0.359635 -0.03627,0.166021 0.01876,0.29464 0.175287,0.373857 0.03296,0.01669 0.06914,0.02606 0.103711,0.03909 0.215839,0.06165 0.439597,0.05441 0.660427,0.03296 0.138303,-0.0109 0.274145,-0.03904 0.41121,-0.05898 0.137345,-0.01646 0.203041,-0.06484 0.215288,-0.219199 0.0024,-0.02896 -0.03563,-0.1255 -0.04617,-0.154522 -0.07474,-0.201083 -0.140227,-0.405405 -0.206267,-0.609476 -0.06936,-0.190402 -0.138348,-0.381079 -0.203237,-0.573058 -0.0056,-0.04623 -0.05777,-0.126608 -0.02617,-0.173686 0.0041,-0.0061 0.02503,-0.01249 0.0298,-0.01426 0.163264,-0.05021 0.343289,-0.0053 0.504378,0.03385 0.129524,0.03676 0.263252,0.0807 0.362201,0.177089 0.04668,0.04547 0.07002,0.08991 0.104455,0.144549 0.08857,0.16985 0.101568,0.339919 0.08063,0.526566 -0.02164,0.148355 -0.06549,0.288981 -0.130649,0.423344 -0.07692,0.156136 -0.07587,0.234262 0.08892,0.345205 0.03458,0.02328 0.166044,0.05062 0.205671,0.05997 0.150024,0.03121 0.302628,0.04618 0.455536,0.05231 0.124356,0.01294 0.239387,-0.01122 0.353964,-0.05775 0.09391,-0.04893 0.15689,-0.121357 0.140552,-0.239644 -0.01572,-0.113723 -0.124073,-0.200911 -0.200623,-0.274122 -0.02254,-0.02011 -0.04508,-0.04021 -0.06761,-0.06032 -0.158411,-0.141089 -0.357941,0.08294 -0.19953,0.224028 v 0 c 0.02021,0.01796 0.0404,0.03592 0.06061,0.05388 0.01871,0.0176 0.03765,0.03492 0.05612,0.05277 0.01339,0.01291 0.02289,0.03098 0.03941,0.03951 0.0104,0.0054 0.02609,-0.0652 0.06658,-0.08214 0.0038,-0.0016 -0.006,0.0056 -0.009,0.0084 -0.07543,0.03111 -0.14532,0.04723 -0.228632,0.03567 -0.134196,-0.0052 -0.268121,-0.01812 -0.399894,-0.04486 -0.02611,-0.0058 -0.05236,-0.01122 -0.07837,-0.01754 -0.01765,-0.0043 -0.04281,-0.02961 -0.05258,-0.01429 -0.01183,0.01852 0.02024,0.0402 0.02209,0.06209 0.0064,0.07537 -0.03414,0.08075 0.01693,-0.0126 0.07988,-0.16579 0.133529,-0.339915 0.158916,-0.522763 0.02627,-0.2672 0.0021,-0.48178 -0.127989,-0.721964 -0.02506,-0.03731 -0.04723,-0.07671 -0.07513,-0.111934 -0.144835,-0.182825 -0.351332,-0.28044 -0.573071,-0.337265 -0.211741,-0.04954 -0.477711,-0.108984 -0.685956,-0.0155 -0.03627,0.01627 -0.06762,0.04185 -0.101421,0.06278 -0.0245,0.02854 -0.05384,0.05356 -0.07349,0.08563 -0.07906,0.129095 -0.04428,0.27595 -7.94e-4,0.409273 0.06467,0.19063 0.132649,0.380225 0.201964,0.569212 0.06722,0.207674 0.133938,0.415586 0.209976,0.620239 0.04152,0.112323 0.01167,0.04874 0.06886,-0.0122 0.0131,-0.01394 0.03459,-0.0163 0.05182,-0.02461 0.0032,-0.0016 -0.0066,0.0029 -0.0099,0.0044 -0.01384,0.0021 -0.02769,0.0041 -0.04154,0.0061 -0.132387,0.01937 -0.263581,0.0465 -0.397148,0.05726 -0.177673,0.01757 -0.357806,0.02705 -0.532709,-0.01775 -0.01678,-0.0048 -0.03363,-0.0093 -0.05033,-0.01445 -0.0085,-0.0026 -0.01646,-0.0091 -0.0254,-0.0087 -0.0048,2.33e-4 -0.01299,0.03142 -0.01603,0.0033 -7.94e-4,-0.0069 5.29e-4,-0.01376 7.94e-4,-0.02064 0.02508,-0.08396 0.06311,-0.163796 0.12134,-0.230151 0.05633,-0.053 0.112983,-0.106103 0.175467,-0.151889 0.176506,-0.117671 0.01011,-0.367287 -0.16641,-0.249615 z" /><path
         style="opacity:0.99;fill:#000000;fill-opacity:1;stroke:none;stroke-width:0.1;stroke-dasharray:none;stroke-opacity:1"
         id="path82"
         d="m 59.953467,38.485807 c -0.09232,0.06095 -0.193503,0.107625 -0.272601,0.186958 -0.02899,0.02907 -0.05345,0.06234 -0.08017,0.0935 -0.131987,0.190617 -0.236273,0.400056 -0.322554,0.614929 -0.0567,0.166396 -0.09792,0.337794 -0.08259,0.515062 0.0043,0.04989 0.01471,0.09906 0.02209,0.148595 0.04627,0.266935 0.188267,0.497052 0.31954,0.728633 0.11457,0.185529 0.163013,0.388655 0.191424,0.601943 0.02233,0.232275 -0.02834,0.429866 -0.15543,0.623409 -0.06844,0.09394 -0.160819,0.164399 -0.248626,0.238752 -0.161761,0.137231 0.03232,0.365998 0.19408,0.228764 v 0 c 0.110752,-0.09412 0.224832,-0.185719 0.307977,-0.306977 0.02627,-0.04255 0.05568,-0.08334 0.07884,-0.127665 0.111913,-0.214135 0.141242,-0.45884 0.12043,-0.69664 -0.03458,-0.250623 -0.0944,-0.491087 -0.227722,-0.709543 -0.113458,-0.200091 -0.240702,-0.397608 -0.284175,-0.627388 -0.03088,-0.181684 -0.02267,-0.332055 0.04278,-0.505706 0.0738,-0.186103 0.164965,-0.366456 0.274426,-0.534136 0.02762,-0.03471 0.05363,-0.07294 0.08956,-0.100266 0.06169,-0.04692 0.136904,-0.0761 0.199134,-0.122611 0.176506,-0.117668 0.01011,-0.367284 -0.16641,-0.249616 z" /><path
         style="opacity:0.99;fill:#000000;fill-opacity:1;stroke:none;stroke-width:0.1;stroke-dasharray:none;stroke-opacity:1"
         id="path83"
         d="m 62.519684,38.48336 c -0.07884,0.121089 -0.123343,0.254492 -0.156932,0.394031 -0.03762,0.187237 -0.04893,0.378311 -0.05527,0.568769 -0.01056,0.196649 0.02748,0.38762 0.09202,0.572143 0.1088,0.251439 0.285039,0.45792 0.462325,0.662498 0.135337,0.147027 0.268981,0.290743 0.367041,0.465677 0.0981,0.205513 0.101682,0.427998 0.08508,0.65 -0.02556,0.21845 -0.167883,0.349853 -0.328125,0.483724 -0.09663,0.08002 -0.203042,0.145547 -0.311026,0.2086 -0.18293,0.107411 -0.03103,0.366112 0.1519,0.258705 v 0 c 0.122269,-0.07214 0.24302,-0.146675 0.352433,-0.237887 0.237575,-0.20161 0.392829,-0.370338 0.434033,-0.69142 0.01992,-0.281599 0.0061,-0.562383 -0.123425,-0.819872 -0.109617,-0.191059 -0.250397,-0.35405 -0.401196,-0.513998 -0.15308,-0.176644 -0.307676,-0.35256 -0.406636,-0.567259 -0.05477,-0.147802 -0.08243,-0.30285 -0.07459,-0.461008 0.0056,-0.17059 0.01513,-0.341741 0.0474,-0.509693 0.02429,-0.105357 0.05552,-0.204991 0.114586,-0.2966 0.117668,-0.176504 -0.131945,-0.342914 -0.249616,-0.16641 z" /><path
         style="opacity:0.99;fill:#000000;fill-opacity:1;stroke:none;stroke-width:0.1;stroke-dasharray:none;stroke-opacity:1"
         id="path84"
         d="m 60.284693,38.748647 c 0.152435,-0.02582 0.298434,-0.02882 0.450199,-5.29e-4 0.15916,0.03428 0.308922,0.0976 0.459936,0.156596 0.161928,0.06342 0.327028,0.128672 0.501536,0.147783 0.0474,0.0052 0.09529,0.0041 0.142931,0.0062 0.159689,0.0048 0.312968,-0.03322 0.465026,-0.07641 0.203975,-0.05826 0.121587,-0.346723 -0.08239,-0.288465 v 0 c -0.122172,0.03511 -0.244621,0.06861 -0.37328,0.06502 -0.190918,-0.0026 -0.370163,-0.05836 -0.544684,-0.133564 -0.169122,-0.06603 -0.337323,-0.135888 -0.516025,-0.172426 -0.168333,-0.02931 -0.334468,-0.03776 -0.503251,-0.0043 -0.212132,0 -0.212132,0.300001 0,0.300001 z" /><path
         style="opacity:0.99;fill:#000000;fill-opacity:1;stroke:none;stroke-width:0.1;stroke-dasharray:none;stroke-opacity:1"
         id="path85"
         d="m 59.814735,42.290688 c 0.184137,-0.03786 0.367374,-0.07977 0.553429,-0.108199 0.171971,-0.02114 0.330115,0.03931 0.484653,0.106391 0.184661,0.08662 0.364207,0.184669 0.540113,0.287933 0.175635,0.11012 0.323373,0.156448 0.531203,0.145574 0.180351,-0.01193 0.334124,-0.08779 0.47651,-0.194281 0.168489,-0.128884 -0.01378,-0.367165 -0.182269,-0.238278 v 0 c -0.09421,0.07472 -0.194284,0.124632 -0.315825,0.133336 -0.133141,0.01469 -0.246393,-0.03402 -0.357926,-0.105174 -0.18664,-0.109223 -0.376854,-0.213445 -0.572984,-0.304575 -0.206968,-0.08879 -0.420243,-0.158708 -0.649018,-0.12745 -0.195194,0.03012 -0.387411,0.07384 -0.580646,0.113678 -0.205799,0.05145 -0.133038,0.342493 0.07276,0.291045 z" /><path
         style="opacity:0.99;fill:#000000;fill-opacity:1;stroke:none;stroke-width:0.1;stroke-dasharray:none;stroke-opacity:1"
         id="path86"
         d="m 60.163702,39.508589 c 0.01722,0.158927 0.04117,0.314526 0.08397,0.468854 0.02405,0.10059 0.0574,0.197803 0.09412,0.294291 0.07623,0.197961 0.35619,0.09015 0.279961,-0.107807 v 0 c -0.03416,-0.0874 -0.06306,-0.17616 -0.08523,-0.267488 -0.04175,-0.146889 -0.05966,-0.295561 -0.07865,-0.446686 -0.0416,-0.208013 -0.335777,-0.149177 -0.294174,0.05884 z" /><path
         style="opacity:0.99;fill:#000000;fill-opacity:1;stroke:none;stroke-width:0.1;stroke-dasharray:none;stroke-opacity:1"
         id="path87"
         d="m 61.555791,39.629276 c 0.0027,0.113408 0.0011,0.225575 -0.0131,0.338095 -0.0028,0.02132 -0.0055,0.04265 -0.0083,0.06398 -0.02732,0.210367 0.270188,0.248996 0.297503,0.03863 v 0 c 0.0028,-0.02185 0.0057,-0.04372 0.0085,-0.06558 0.01537,-0.124838 0.0186,-0.249383 0.0154,-0.375123 0,-0.21213 -0.3,-0.21213 -0.3,0 z" /><path
         style="opacity:0.99;fill:#000000;fill-opacity:1;stroke:none;stroke-width:0.1;stroke-dasharray:none;stroke-opacity:1"
         id="path88"
         d="m 61.093217,41.366612 c 0.08681,-0.08887 0.217282,-0.110591 0.334024,-0.132718 0.1475,-0.02013 0.309938,-0.05293 0.444333,0.02635 0.128085,0.09419 0.221409,0.227544 0.235397,0.387791 -0.0046,0.156195 -0.07697,0.235411 -0.213138,0.297077 -0.02434,0.0067 -0.0479,0.0176 -0.07301,0.02027 -0.166444,0.0177 -0.329748,-0.09831 -0.456184,-0.188407 -0.132334,-0.09963 -0.231217,-0.228528 -0.327403,-0.360902 -0.124699,-0.171611 -0.367393,0.0047 -0.242695,0.17635 v 0 c 0.115687,0.159205 0.238091,0.311642 0.397809,0.430146 0.25672,0.177893 0.522034,0.31091 0.836134,0.190643 0.0358,-0.01897 0.07363,-0.0345 0.107384,-0.05689 0.188499,-0.125013 0.276129,-0.3297 0.267975,-0.551519 -0.0076,-0.04363 -0.01098,-0.08822 -0.02289,-0.130881 -0.05684,-0.203626 -0.204073,-0.36875 -0.3767,-0.482738 -0.0389,-0.0176 -0.07619,-0.03929 -0.1167,-0.05278 -0.165539,-0.05512 -0.350194,-0.01979 -0.517721,0.0011 -0.191127,0.0381 -0.386969,0.09019 -0.516606,0.247169 -0.127278,0.169706 0.11272,0.349705 0.24,0.180001 z" /><path
         style="opacity:0.99;fill:#000000;fill-opacity:1;stroke:none;stroke-width:0.1;stroke-dasharray:none;stroke-opacity:1"
         id="path89"
         d="m 64.588151,38.83144 c 0.120237,0.09984 0.231738,0.204858 0.331481,0.325392 0.198636,0.256 0.381193,0.524714 0.567668,0.789805 0.192958,0.257987 0.395158,0.508318 0.61993,0.739251 0.203692,0.188074 0.411546,0.371028 0.620659,0.553019 0.179086,0.152884 0.37555,0.290444 0.528455,0.471027 0.09682,0.127971 0.193101,0.258062 0.274643,0.396605 0.01347,0.02222 0.02693,0.04445 0.04039,0.06667 0.10994,0.18142 0.366506,0.02596 0.256566,-0.155477 v 0 c -0.01302,-0.02148 -0.02606,-0.04298 -0.03907,-0.06446 -0.09158,-0.152918 -0.196199,-0.29841 -0.305252,-0.439147 -0.165137,-0.189225 -0.365247,-0.34258 -0.558795,-0.501518 -0.202993,-0.176641 -0.40472,-0.354245 -0.602914,-0.53626 -0.214265,-0.218826 -0.405,-0.457899 -0.589248,-0.702313 -0.191172,-0.271737 -0.378216,-0.547259 -0.582522,-0.809196 -0.115335,-0.137721 -0.243253,-0.259453 -0.381993,-0.373393 -0.169706,-0.127281 -0.349705,0.11272 -0.180001,0.240001 z" /><path
         style="opacity:0.99;fill:#000000;fill-opacity:1;stroke:none;stroke-width:0.1;stroke-dasharray:none;stroke-opacity:1"
         id="path90"
         d="m 68.230249,38.650433 c -0.270997,0.105177 -0.531074,0.234434 -0.789551,0.366876 -0.400039,0.205206 -0.769768,0.461878 -1.122225,0.739558 -0.251476,0.209807 -0.500393,0.423003 -0.735962,0.650643 -0.1767,0.193055 -0.381664,0.354853 -0.583991,0.519355 -0.184611,0.13176 -0.366035,0.266417 -0.528204,0.425347 -0.0971,0.09263 -0.04873,0.04679 -0.145089,0.137528 -0.154427,0.145439 0.05125,0.363831 0.205681,0.218392 v 0 c 0.09901,-0.09325 0.04895,-0.0458 0.150138,-0.142396 0.154125,-0.153418 0.331677,-0.277892 0.50673,-0.406101 0.209016,-0.16995 0.420463,-0.337542 0.603383,-0.536564 0.227901,-0.220988 0.469847,-0.426792 0.713073,-0.630632 0.336968,-0.26597 0.690676,-0.51163 1.073293,-0.708149 0.268875,-0.137827 0.541591,-0.265152 0.819134,-0.384241 0.176506,-0.117671 0.01011,-0.367287 -0.16641,-0.249616 z" /><path
         style="opacity:0.99;fill:#000000;fill-opacity:1;stroke:none;stroke-width:0.1;stroke-dasharray:none;stroke-opacity:1"
         id="path91"
         d="m 65.485007,40.685314 c -0.08818,-0.170651 -0.221655,-0.309401 -0.365133,-0.434417 0.02262,0.01844 -0.08444,-0.08281 -0.05661,-0.08841 0.0085,-0.0016 0.0079,0.01479 0.0217,0.0042 0.04194,-0.07266 0.110567,-0.116557 0.17604,-0.165061 0.169924,-0.126987 -0.0097,-0.367297 -0.179586,-0.24031 v 0 c -0.09556,0.07229 -0.191105,0.143227 -0.252714,0.249385 -0.09701,0.189154 -0.05726,0.32266 0.09527,0.467419 0.114721,0.09757 0.221213,0.20751 0.292717,0.341381 0.09487,0.189738 0.363196,0.05557 0.268327,-0.134162 z" /><path
         style="opacity:0.99;fill:#000000;fill-opacity:1;stroke:none;stroke-width:0.1;stroke-dasharray:none;stroke-opacity:1"
         id="path92"
         d="m 65.790132,39.780077 c 0.07326,-0.06321 0.14746,-0.183627 0.256035,-0.185542 0.0724,0.0065 0.144248,0.04585 0.200205,0.0916 0.01593,0.01151 0.03183,0.02302 0.04774,0.03453 0.171928,0.124259 0.347657,-0.118888 0.175725,-0.243147 v 0 c -0.01471,-0.01064 -0.02944,-0.02127 -0.04416,-0.03189 -0.129601,-0.09263 -0.275214,-0.16401 -0.439214,-0.145089 -0.168002,0.0419 -0.294687,0.138168 -0.408469,0.267411 -0.15,0.15 0.06213,0.362133 0.21213,0.212133 z" /><path
         style="opacity:0.99;fill:#000000;fill-opacity:1;stroke:none;stroke-width:0.1;stroke-dasharray:none;stroke-opacity:1"
         id="path93"
         d="m 66.565173,40.099109 c 0.05563,0.115887 0.146071,0.213045 0.180742,0.33841 0.01228,0.05966 -0.01495,0.111593 -0.05723,0.153495 -0.04062,0.05105 -0.02048,0.03024 -0.058,0.0647 -0.151265,0.148722 0.05906,0.362646 0.210325,0.213921 v 0 c 0.05992,-0.06085 0.03435,-0.03136 0.07846,-0.08694 0.100573,-0.128836 0.157326,-0.27156 0.112183,-0.436602 -0.05118,-0.14973 -0.138843,-0.276884 -0.216858,-0.413398 -0.117668,-0.176506 -0.367284,-0.01011 -0.249616,0.16641 z" /><path
         style="opacity:0.99;fill:#000000;fill-opacity:1;stroke:none;stroke-width:0.1;stroke-dasharray:none;stroke-opacity:1"
         id="path94"
         d="m 65.11577,41.041221 c 0.09454,0.136501 0.210127,0.25632 0.330835,0.36962 0.146164,0.123672 0.253928,0.192405 0.45166,0.184894 0.148867,-0.0096 0.260559,-0.103429 0.385574,-0.170532 0.05394,-0.03381 0.105281,-0.06903 0.15543,-0.108162 0.165306,-0.13294 -0.0227,-0.36672 -0.188008,-0.233778 v 0 c -0.03515,0.03002 -0.07483,0.05204 -0.112173,0.07917 -0.08703,0.04875 -0.165835,0.118149 -0.266816,0.134429 -0.09142,0.02735 -0.150469,-0.06169 -0.221142,-0.1055 -0.10456,-0.09654 -0.203282,-0.200207 -0.285747,-0.316553 -0.117668,-0.176503 -0.367284,-0.01011 -0.249613,0.16641 z" /><path
         style="opacity:0.99;fill:#000000;fill-opacity:1;stroke:none;stroke-width:0.1;stroke-dasharray:none;stroke-opacity:1"
         id="path95"
         d="m 64.938081,42.486873 c 0.103661,-0.06121 0.208418,-0.116806 0.322527,-0.155819 0.113363,-0.04087 0.229849,-0.0924 0.35251,-0.08787 0.138075,0.0088 0.270817,0.06165 0.39888,0.111421 0.156504,0.04411 0.283901,0.136692 0.410681,0.233918 0.01572,0.01439 0.03145,0.0288 0.04718,0.0432 0.157519,0.142084 0.358455,-0.08068 0.200935,-0.222766 v 0 c -0.02186,-0.0195 -0.04371,-0.039 -0.06556,-0.0585 -0.149318,-0.11449 -0.302673,-0.221318 -0.485436,-0.275817 -0.163741,-0.06258 -0.332317,-0.127048 -0.509464,-0.131445 -0.156088,0.0049 -0.304326,0.04414 -0.448447,0.104566 -0.137464,0.04859 -0.265676,0.113855 -0.390216,0.189492 -0.176503,0.11767 -0.01011,0.367284 0.16641,0.249616 z" /><path
         style="opacity:0.99;fill:#000000;fill-opacity:1;stroke:none;stroke-width:0.1;stroke-dasharray:none;stroke-opacity:1"
         id="path96"
         d="m 67.760452,39.805246 c -0.06816,0.144492 -0.166952,0.270574 -0.245761,0.408996 -0.107518,0.160417 -0.118237,0.335306 -0.08379,0.519536 0.03744,0.15081 0.13159,0.26766 0.230523,0.382413 0.138523,0.160657 0.365729,-0.03525 0.227203,-0.195903 v 0 c -0.06511,-0.07551 -0.133953,-0.1484 -0.163771,-0.24642 -0.02705,-0.115202 -0.01873,-0.212008 0.05098,-0.311983 0.08031,-0.143322 0.184766,-0.272127 0.252933,-0.422474 0.09487,-0.189735 -0.17346,-0.3239 -0.268327,-0.134165 z" /><path
         style="opacity:0.99;fill:#000000;fill-opacity:1;stroke:none;stroke-width:0.1;stroke-dasharray:none;stroke-opacity:1"
         id="path97"
         d="m 65.616012,38.53527 c 0.104111,0.054 0.215064,0.09656 0.325552,0.136409 0.13023,0.04149 0.266329,0.05516 0.402121,0.04634 0.09654,-0.0067 0.183817,-0.04315 0.267634,-0.08841 0.183812,-0.105892 0.03406,-0.365842 -0.149754,-0.259951 v 0 c -0.04208,0.02907 -0.09274,0.04383 -0.143203,0.04943 -0.09199,0.01175 -0.187013,-0.007 -0.276029,-0.02999 -0.08792,-0.03088 -0.17416,-0.06756 -0.259911,-0.103455 -0.176506,-0.11767 -0.342916,0.131945 -0.16641,0.249616 z" /><path
         style="opacity:0.99;fill:#000000;fill-opacity:1;stroke:none;stroke-width:0.1;stroke-dasharray:none;stroke-opacity:1"
         id="path98"
         d="m 63.878515,39.646772 c 0.05324,0.08585 0.09175,0.175757 0.115731,0.273687 0.01963,0.09648 0.02945,0.193249 0.01135,0.290108 -0.003,0.0049 -0.006,0.0099 -0.0089,0.0149 -0.07708,0.197636 0.202419,0.306639 0.279495,0.109006 v 0 c 0.0083,-0.024 0.01662,-0.04799 0.02492,-0.07199 0.02347,-0.139136 0.01487,-0.277937 -0.01603,-0.415711 -0.03383,-0.130384 -0.08467,-0.252319 -0.156922,-0.366397 -0.11767,-0.176504 -0.367284,-0.01011 -0.249615,0.166412 z" /><path
         style="opacity:0.99;fill:#000000;fill-opacity:1;stroke:none;stroke-width:0.1;stroke-dasharray:none;stroke-opacity:1"
         id="path100"
         d="m 69.293572,41.288236 c 0.268923,-0.301866 0.579404,-0.560943 0.897173,-0.809112 0.206606,-0.149796 0.422892,-0.298807 0.67101,-0.371713 0.104463,-0.0307 0.184042,-0.04827 0.282184,1.59e-4 0.02979,0.01471 0.05115,0.04239 0.07672,0.06359 0.01998,0.03206 0.04342,0.06221 0.05995,0.09618 0.116089,0.23858 0.119783,0.562086 0.142203,0.82374 0.01908,0.201536 0.06019,0.427522 0.26815,0.521282 0.133668,0.06026 0.209508,0.03533 0.348158,0.02294 0.06104,-0.02053 0.123758,-0.03663 0.183126,-0.06159 0.2091,-0.08791 0.418417,-0.23864 0.526925,-0.442989 0.02387,-0.04496 0.03679,-0.09492 0.05519,-0.142383 0.0053,-0.04832 0.01717,-0.09637 0.01595,-0.144965 -0.0047,-0.189722 -0.122859,-0.354555 -0.291687,-0.436168 -0.03787,-0.01831 -0.07954,-0.02744 -0.119306,-0.04116 -0.0426,-0.0024 -0.08575,-0.0146 -0.127783,-0.0073 -0.25314,0.04407 -0.384709,0.299821 -0.398928,0.536234 -0.0045,0.07516 0.0098,0.150267 0.01466,0.225398 0.07398,0.22474 0.06945,0.273204 0.221726,0.468292 0.06118,0.07838 0.137208,0.143952 0.205811,0.215926 0.147921,0.152051 0.362956,-0.05714 0.215035,-0.20919 v 0 c -0.05609,-0.0562 -0.117438,-0.107606 -0.168267,-0.168608 -0.115922,-0.139123 -0.114922,-0.17335 -0.175461,-0.332722 -0.01926,-0.156197 -0.03281,-0.21246 0.0337,-0.357873 0.0021,-0.0045 0.03823,-0.07198 0.04898,-0.07747 0.01294,-0.0066 0.02878,-0.0038 0.04318,-0.0057 0.01706,0.0036 0.03491,0.0046 0.05123,0.01074 0.07021,0.02652 0.136369,0.08027 0.147908,0.157882 0.0032,0.02175 5.29e-4,0.04395 7.93e-4,0.06593 -0.0079,0.02633 -0.01225,0.05398 -0.02371,0.07896 -0.08859,0.192992 -0.307843,0.300492 -0.495237,0.370927 -0.03161,0.0058 -0.157287,0.03732 -0.19436,0.01127 -0.08333,-0.05858 -0.06962,-0.200649 -0.08675,-0.283305 -0.02673,-0.31184 -0.03251,-0.705032 -0.200602,-0.977442 -0.03813,-0.0618 -0.09177,-0.112562 -0.137649,-0.168841 -0.06245,-0.03568 -0.119126,-0.0843 -0.187365,-0.107037 -0.156369,-0.05209 -0.292219,-0.03052 -0.445259,0.01654 -0.274387,0.08435 -0.515586,0.246864 -0.744863,0.41411 -0.327078,0.255955 -0.647346,0.522512 -0.924536,0.833326 -0.150001,0.150001 0.06213,0.362133 0.212132,0.212133 z" /><path
         style="opacity:0.99;fill:#000000;fill-opacity:1;stroke:none;stroke-width:0.1;stroke-dasharray:none;stroke-opacity:1"
         id="path102"
         d="m 74.243511,39.521298 c 0.139761,0.108405 0.260877,0.238009 0.380892,0.367239 0.140284,0.154538 0.278595,0.310846 0.420846,0.463587 0.08419,0.09813 0.173598,0.19167 0.253942,0.293016 0.06907,0.09286 0.125521,0.195313 0.164081,0.304429 0.02918,0.106487 0.03367,0.219763 0.0051,0.32656 -0.04458,0.126666 -0.132186,0.22739 -0.230256,0.31605 -0.115105,0.100888 -0.242237,0.186962 -0.371457,0.268536 -0.139007,0.09216 -0.278032,0.18428 -0.417671,0.275484 -0.177578,0.116046 -0.01347,0.367176 0.164113,0.251129 v 0 c 0.138385,-0.09048 0.276297,-0.181665 0.414025,-0.273137 0.144225,-0.09152 0.286253,-0.187751 0.41424,-0.301358 0.141176,-0.131786 0.26352,-0.280802 0.31936,-0.469408 0.0068,-0.0324 0.0158,-0.06442 0.02048,-0.0972 0.01905,-0.132939 7.94e-4,-0.271229 -0.03596,-0.399129 -0.05146,-0.138948 -0.120973,-0.270867 -0.211312,-0.388781 -0.08555,-0.107133 -0.17934,-0.207113 -0.269142,-0.310661 -0.142203,-0.152656 -0.280345,-0.308993 -0.420653,-0.46338 -0.135964,-0.146111 -0.273529,-0.293 -0.434203,-0.412589 -0.176503,-0.117671 -0.342913,0.131945 -0.166409,0.249613 z" /><path
         style="opacity:0.99;fill:#000000;fill-opacity:1;stroke:none;stroke-width:0.1;stroke-dasharray:none;stroke-opacity:1"
         id="path103"
         d="m 76.599634,38.484081 c -0.09301,0.166484 -0.204677,0.321879 -0.31209,0.479232 -0.138895,0.185968 -0.284726,0.365697 -0.404489,0.564888 -0.122434,0.209174 -0.174086,0.444463 -0.211408,0.681064 -0.02125,0.173376 -0.03929,0.34711 -0.069,0.519298 -0.01889,0.115525 -0.04787,0.228939 -0.06364,0.344982 -0.01066,0.16406 0.03505,0.324861 0.07955,0.481105 0.06234,0.196678 0.150677,0.383368 0.24942,0.564028 0.07262,0.12804 0.160903,0.245764 0.249489,0.362943 0.07313,0.103671 0.174921,0.176929 0.284432,0.23759 0.100198,0.04689 0.208814,0.07558 0.317325,0.03648 0.02537,-0.0092 0.04814,-0.02439 0.0722,-0.03658 0.142071,-0.101367 0.203489,-0.250296 0.245084,-0.413576 0.03574,-0.235873 0.04668,-0.475218 0.06373,-0.713113 0.02188,-0.300386 0.04935,-0.60027 0.08338,-0.899522 0.03282,-0.261557 0.04651,-0.524724 0.05423,-0.78803 0.0024,-0.172434 0.0088,-0.345083 0.0011,-0.517437 -0.01733,-0.168709 -0.06045,-0.332725 -0.116094,-0.492443 -0.02783,-0.08678 -0.07265,-0.167238 -0.09439,-0.255963 -0.0013,-0.0071 -0.0024,-0.01421 -0.0037,-0.0213 -0.03964,-0.208396 -0.334357,-0.152331 -0.294714,0.05606 v 0 c 0.0026,0.01336 0.0053,0.02669 0.0079,0.04004 0.02559,0.09666 0.06748,0.186793 0.101825,0.280455 0.04672,0.132101 0.08224,0.267841 0.09951,0.407157 0.0081,0.164708 1.17e-4,0.329853 -0.0013,0.494652 -0.0074,0.254923 -0.02056,0.509714 -0.05245,0.762934 -0.03444,0.303389 -0.06239,0.607406 -0.08453,0.911942 -0.01585,0.221271 -0.02754,0.443473 -0.05596,0.663464 -0.01815,0.07996 -0.04491,0.162835 -0.102108,0.223996 -0.0013,0.0016 -0.01323,0.01992 -0.01722,0.01982 -0.02757,-7.94e-4 -0.05443,-0.01381 -0.08002,-0.02233 -0.07316,-0.03908 -0.141253,-0.08579 -0.188952,-0.155255 -0.07977,-0.105452 -0.159681,-0.211079 -0.225605,-0.326011 -0.0883,-0.161121 -0.167566,-0.327451 -0.224194,-0.50264 -0.03366,-0.116678 -0.06931,-0.236725 -0.07055,-0.359021 0.01442,-0.112345 0.04518,-0.221676 0.06192,-0.333669 0.02969,-0.173696 0.04906,-0.348749 0.06972,-0.523703 0.03076,-0.198585 0.07083,-0.397086 0.172426,-0.573357 0.115827,-0.194567 0.26158,-0.36721 0.394851,-0.549817 0.107974,-0.158179 0.220803,-0.314508 0.313928,-0.48196 0.117671,-0.176506 -0.131945,-0.342916 -0.249616,-0.16641 z" /><path
         style="opacity:0.99;fill:#000000;fill-opacity:1;stroke:none;stroke-width:0.1;stroke-dasharray:none;stroke-opacity:1"
         id="path104"
         d="m 77.370312,38.716108 c 0.07915,0.120475 0.15558,0.242128 0.224308,0.368887 0.07208,0.128577 0.124458,0.266377 0.155993,0.410136 0.02072,0.160144 0.03386,0.321278 0.05011,0.48197 0.01812,0.187661 0.02742,0.376172 0.02418,0.564677 -0.0021,0.164896 -0.02,0.329496 -0.06879,0.487248 -0.04674,0.09826 -0.137686,0.15993 -0.226629,0.216787 -0.0964,0.05936 -0.203369,0.09828 -0.309716,0.135622 -0.117054,0.02972 -0.208732,0.09849 -0.22902,0.225931 -0.01175,0.07372 0.01109,0.122753 0.03154,0.190481 0.06774,0.164621 0.199044,0.28548 0.33414,0.395597 0.09618,0.0753 0.196501,0.143942 0.299813,0.208947 0.06026,0.04026 0.119176,0.0824 0.18084,0.120534 0.180837,0.110897 0.337669,-0.144844 0.156834,-0.255741 v 0 c -0.06102,-0.03697 -0.117938,-0.08009 -0.177903,-0.118706 -0.0932,-0.05864 -0.18392,-0.120118 -0.270682,-0.188095 -0.09127,-0.07345 -0.18528,-0.1525 -0.238882,-0.258722 -0.04283,-0.09588 -0.02896,0.02453 -0.07243,-0.0049 -0.02516,-0.01701 0.151358,-0.02138 0.0852,-0.03228 0.128566,-0.04519 0.25708,-0.09387 0.373031,-0.16665 0.149159,-0.09708 0.28621,-0.209738 0.350967,-0.381736 0.05526,-0.18497 0.08013,-0.376423 0.08166,-0.569563 0.0029,-0.200173 -0.006,-0.400333 -0.02566,-0.599599 -0.01744,-0.172564 -0.03041,-0.345834 -0.05584,-0.517398 -0.03884,-0.170574 -0.09916,-0.334957 -0.185161,-0.487815 -0.07593,-0.139364 -0.159605,-0.27374 -0.24788,-0.405611 -0.127281,-0.169707 -0.367279,0.01029 -0.240001,0.180001 z" /><path
         style="opacity:0.99;fill:#000000;fill-opacity:1;stroke:none;stroke-width:0.1;stroke-dasharray:none;stroke-opacity:1"
         id="path105"
         d="m 76.492477,40.100127 c -0.125261,0.0021 -0.25024,-0.0087 -0.375166,-0.01643 -0.15618,-0.01011 -0.112572,-0.03803 -0.109145,0.292504 1.34e-4,0.01312 0.02611,0.0029 0.03918,0.0042 0.01683,0.0016 0.03369,0.0029 0.05053,0.0044 0.09692,0.0077 0.19412,0.01082 0.29129,0.01333 0.212061,0.0055 0.219835,-0.294402 0.0078,-0.2999 v 0 c -0.09116,-0.0024 -0.182356,-0.0052 -0.273296,-0.01233 -0.01497,-0.0013 -0.02998,-0.0024 -0.04496,-0.0038 -0.01045,-0.0011 -0.02799,-0.0132 -0.03134,-0.0032 -0.108849,0.323432 -0.135339,0.290732 0.05132,0.304345 0.131128,0.0082 0.262324,0.01926 0.393809,0.01701 0.212132,0 0.212132,-0.300001 0,-0.300001 z" /><path
         style="opacity:0.99;fill:#000000;fill-opacity:1;stroke:none;stroke-width:0.1;stroke-dasharray:none;stroke-opacity:1"
         id="path106"
         d="m 75.913487,41.399565 c 0.115967,0.01169 0.229566,0.03821 0.34413,0.05871 0.04824,0.009 0.09708,0.01373 0.145897,0.01823 0.211262,0.01918 0.238395,-0.279583 0.02713,-0.298771 v 0 c -0.04024,-0.0036 -0.0805,-0.0073 -0.120256,-0.01479 -0.112517,-0.02008 -0.224118,-0.04682 -0.338069,-0.05756 -0.208012,-0.0416 -0.266848,0.252572 -0.05884,0.294175 z" /><path
         style="opacity:0.99;fill:#000000;fill-opacity:1;stroke:none;stroke-width:0.1;stroke-dasharray:none;stroke-opacity:1"
         id="path107"
         d="m 77.552226,41.622786 c 0.01315,0.09101 0.01865,0.182814 0.02278,0.274592 5.29e-4,0.01511 0.0011,0.03022 0.0016,0.04533 0.0072,0.212011 0.306999,0.201869 0.299829,-0.01013 v 0 c -5.29e-4,-0.01624 -0.0011,-0.0325 -0.0016,-0.04874 -0.0049,-0.106952 -0.0114,-0.214029 -0.02831,-0.319868 -0.0416,-0.208013 -0.335777,-0.149177 -0.294174,0.05884 z" /><path
         style="opacity:0.99;fill:#000000;fill-opacity:1;stroke:none;stroke-width:0.1;stroke-dasharray:none;stroke-opacity:1"
         id="path108"
         d="m 79.312036,39.224417 c 0.108276,0.12378 0.225089,0.239604 0.334595,0.362344 0.119147,0.134684 0.215514,0.285959 0.30598,0.44063 0.06912,0.107722 0.134257,0.21655 0.166584,0.341217 0.02106,0.107865 0.0263,0.158543 -0.06968,0.218871 -0.103053,0.06041 -0.219221,0.09304 -0.328351,0.14097 -0.11457,0.0537 -0.218503,0.139954 -0.275373,0.2555 -0.0131,0.02662 -0.02127,0.0554 -0.03189,0.08311 -0.0533,0.198508 0.01386,0.390612 0.08204,0.576013 0.07285,0.166442 0.123018,0.348168 0.22655,0.499663 0.0186,0.02722 0.04068,0.05191 0.06102,0.07786 0.121473,0.125717 0.295103,0.192056 0.465775,0.124513 0.03539,-0.014 0.0662,-0.03755 0.0993,-0.05633 0.161296,-0.124463 0.258138,-0.30643 0.370401,-0.471927 0.05269,-0.07967 0.111604,-0.155332 0.174136,-0.227481 0.138345,-0.160811 -0.08908,-0.356462 -0.227423,-0.195649 v 0 c -0.06958,0.08134 -0.136298,0.16554 -0.195191,0.255027 -0.08893,0.131765 -0.166415,0.274942 -0.281758,0.386154 -7.93e-4,5.29e-4 -0.03744,0.03359 -0.04541,0.03615 -0.04807,0.01545 -0.09204,-0.0063 -0.12619,-0.03864 -0.119333,-0.1416 -0.167879,-0.325806 -0.239853,-0.493438 -0.04431,-0.118911 -0.09933,-0.245604 -0.07943,-0.375163 0.01511,-0.07561 0.07752,-0.129551 0.144547,-0.160959 0.132734,-0.0591 0.276866,-0.09506 0.395677,-0.182055 0.02754,-0.02416 0.05807,-0.04529 0.08261,-0.07249 0.116907,-0.129548 0.126561,-0.298725 0.08739,-0.460533 -0.04329,-0.148082 -0.110437,-0.28375 -0.196546,-0.411877 -0.100586,-0.171895 -0.208685,-0.339426 -0.341177,-0.488982 -0.113398,-0.126831 -0.233757,-0.247007 -0.346208,-0.374634 -0.15,-0.15 -0.362132,0.06213 -0.212132,0.212132 z" /><path
         style="opacity:0.99;fill:#000000;fill-opacity:1;stroke:none;stroke-width:0.1;stroke-dasharray:none;stroke-opacity:1"
         id="path109"
         d="m 82.797802,38.659474 c -0.16633,0.08944 -0.319262,0.200173 -0.469672,0.3137 -0.17154,0.129881 -0.324699,0.281197 -0.483743,0.425471 -0.144791,0.124905 -0.283948,0.254331 -0.40246,0.404699 -0.09608,0.12718 -0.159322,0.273889 -0.20256,0.426334 -0.02273,0.08995 -0.0071,0.172106 0.02527,0.256233 0.08652,0.193683 0.360434,0.07132 0.27391,-0.122365 v 0 c -0.0074,-0.01466 -0.01654,-0.02997 -0.01019,-0.05332 0.03124,-0.114912 0.07879,-0.225748 0.149823,-0.321988 0.106942,-0.137866 0.237024,-0.252653 0.367845,-0.367456 0.152294,-0.138316 0.298982,-0.283337 0.462944,-0.408236 0.135705,-0.102616 0.273423,-0.202967 0.423005,-0.284745 0.189736,-0.09487 0.05557,-0.363198 -0.134165,-0.268329 z" /><path
         style="opacity:0.99;fill:#000000;fill-opacity:1;stroke:none;stroke-width:0.1;stroke-dasharray:none;stroke-opacity:1"
         id="path110"
         d="m 80.406668,39.067485 c 0.07546,0.199432 0.163459,0.393938 0.261649,0.583128 0.121504,0.231651 0.279397,0.44059 0.429149,0.654111 0.1047,0.134488 0.193304,0.288743 0.325424,0.399809 0.02604,0.02188 0.05496,0.0401 0.08244,0.06014 0.218173,0.119636 0.395462,0.119338 0.630378,0.05713 0.175358,-0.06027 0.323127,-0.176178 0.440965,-0.317302 0.0114,-0.01844 0.02278,-0.0369 0.03419,-0.05535 0.106344,-0.183549 -0.153236,-0.333944 -0.25958,-0.150392 v 0 c -0.0026,0.0056 -0.0051,0.01114 -0.0076,0.01672 -0.07332,0.09569 -0.17638,0.171826 -0.287515,0.217054 -0.13611,0.03945 -0.246542,0.05027 -0.378524,-0.01342 -0.144801,-0.09447 -0.231034,-0.252605 -0.334605,-0.386664 -0.142198,-0.202722 -0.292629,-0.400765 -0.408636,-0.620332 -0.09133,-0.174977 -0.172111,-0.35533 -0.243165,-0.539509 -0.06708,-0.201245 -0.351687,-0.106379 -0.284607,0.09487 z" /><path
         style="opacity:0.99;fill:#000000;fill-opacity:1;stroke:none;stroke-width:0.1;stroke-dasharray:none;stroke-opacity:1"
         id="path111"
         d="m 82.827576,41.406666 c -0.129164,0.08918 -0.251307,0.188317 -0.37121,0.289499 -0.0756,0.06013 -0.155607,0.120232 -0.244526,0.159626 -0.02117,0.0066 -0.04209,0.0078 -0.06396,0.0061 -0.21209,0.0041 -0.206246,0.304078 0.0058,0.299943 v 0 c 0.06407,-0.0031 0.125656,-0.0075 0.18524,-0.03429 0.111593,-0.05362 0.215956,-0.122812 0.31093,-0.202131 0.107628,-0.09092 0.217448,-0.17943 0.332023,-0.26148 0.181904,-0.109141 0.02755,-0.366387 -0.154347,-0.257247 z" /><path
         style="opacity:0.99;fill:#000000;fill-opacity:1;stroke:none;stroke-width:0.1;stroke-dasharray:none;stroke-opacity:1"
         id="path112"
         d="m 81.54414,41.31706 c 0.09506,0.128743 0.174567,0.268584 0.253688,0.407508 0.09845,0.16917 0.194829,0.3399 0.303856,0.502558 0.112532,0.167489 0.217175,0.227047 0.411078,0.272494 0.17278,0.03366 0.347466,0.02474 0.519829,-0.0043 0.09544,-0.01852 0.184452,-0.05329 0.267277,-0.10342 0.178689,-0.114324 0.01701,-0.36703 -0.161676,-0.252707 v 0 c -0.04432,0.03472 -0.103503,0.04454 -0.155983,0.06039 -0.134133,0.02318 -0.269899,0.03198 -0.404804,0.0071 -0.109681,-0.02167 -0.164817,-0.04864 -0.22682,-0.147018 -0.105481,-0.156057 -0.196784,-0.321257 -0.292095,-0.483595 -0.08693,-0.152508 -0.174505,-0.305885 -0.280087,-0.446405 -0.13252,-0.165648 -0.366779,0.02178 -0.234263,0.18741 z" /><path
         style="opacity:0.99;fill:#000000;fill-opacity:1;stroke:none;stroke-width:0.1;stroke-dasharray:none;stroke-opacity:1"
         id="path113"
         d="m 85.404798,39.581753 c 0,0.08834 0,0.176678 0,0.26502 -0.003,0.120211 0.0011,0.239538 0.0132,0.35914 0.01654,0.132162 0.02371,0.265067 0.02768,0.398108 0.01236,0.200782 0.08643,0.292698 0.275561,0.35283 0.121296,0.02532 0.245899,0.02246 0.369139,0.02191 0.09076,0.01125 0.181089,0.02487 0.272235,0.03288 0.08664,0.01593 0.182004,0.05215 0.267518,0.007 0.03405,-0.01799 0.05897,-0.04955 0.08846,-0.07433 0.07643,-0.112665 0.119248,-0.240546 0.145698,-0.372904 0.02106,-0.120644 0.02143,-0.242154 0.0057,-0.363222 -0.01193,-0.113234 -0.02992,-0.225166 -0.04981,-0.337227 -0.02127,-0.164661 -0.07118,-0.241052 -0.210498,-0.331119 -0.146571,-0.07238 -0.308649,-0.100382 -0.469574,-0.118861 -0.111855,-0.01503 -0.223091,0.0084 -0.333859,0.02148 -0.06969,0.01058 -0.13933,0.0045 -0.206971,-0.015 -0.09005,-0.0361 -0.165277,-0.09771 -0.243771,-0.15299 -0.08308,-0.07274 -0.167669,-0.144526 -0.246496,-0.221948 -0.01482,-0.01535 -0.02962,-0.03068 -0.04443,-0.04602 -0.147502,-0.152456 -0.363109,0.05614 -0.215606,0.2086 v 0 c 0.01688,0.01741 0.03377,0.03485 0.05066,0.05227 0.09079,0.08795 0.186148,0.171767 0.283313,0.252502 0.108136,0.07591 0.213461,0.15866 0.341829,0.198189 0.103896,0.02511 0.21006,0.03907 0.31668,0.02233 0.08784,-0.01042 0.17631,-0.03086 0.264898,-0.0213 0.119456,0.01331 0.239961,0.03224 0.351351,0.07942 0.05674,0.02064 0.06111,0.06671 0.0671,0.124931 0.01916,0.107847 0.03664,0.215419 0.04783,0.324454 0.0123,0.08868 0.01167,0.177495 -0.0028,0.266154 -0.01524,0.08126 -0.04146,0.157838 -0.07674,0.232426 0.0281,-0.0076 0.0318,-0.01222 0.06094,-0.006 0.0057,0.0013 -0.01175,0.0013 -0.01754,5.29e-4 -0.04971,-0.0065 -0.09777,-0.02381 -0.147891,-0.02819 -0.100254,-0.0086 -0.19924,-0.02676 -0.299604,-0.034 -0.09591,5.29e-4 -0.192545,0.0028 -0.287713,-0.01103 -0.06019,-0.0071 -0.04225,0.03493 -0.05573,-0.07273 -0.0043,-0.140184 -0.0118,-0.280239 -0.02909,-0.41951 -0.01122,-0.109493 -0.01447,-0.218617 -0.01164,-0.32871 0,-0.08834 0,-0.176681 0,-0.26502 0,-0.212133 -0.3,-0.212133 -0.3,0 z" /><path
         style="opacity:0.99;fill:#000000;fill-opacity:1;stroke:none;stroke-width:0.1;stroke-dasharray:none;stroke-opacity:1"
         id="path114"
         d="m 85.476703,40.779313 c -0.104925,0.10809 -0.220398,0.205126 -0.332076,0.306067 -0.09948,0.09208 -0.195992,0.187952 -0.287168,0.288306 -0.141972,0.157617 0.08093,0.358399 0.222906,0.200782 v 0 c 0.08327,-0.09361 0.174316,-0.1807 0.265433,-0.266534 0.115409,-0.104325 0.23463,-0.204742 0.343038,-0.316489 0.15,-0.15 -0.06213,-0.362133 -0.212133,-0.212132 z" /><path
         style="opacity:0.99;fill:#000000;fill-opacity:1;stroke:none;stroke-width:0.1;stroke-dasharray:none;stroke-opacity:1"
         id="path115"
         d="m 86.685976,41.165956 c 0.06722,0.08045 0.115554,0.174122 0.155324,0.270526 0.03277,0.10826 0.07863,0.210129 0.14097,0.30434 0.04668,0.06121 0.02532,0.03225 0.06442,0.08661 0.124148,0.172011 0.367406,-0.0036 0.243258,-0.175573 v 0 c -0.04102,-0.05668 -0.02127,-0.03059 -0.05881,-0.07856 -0.05321,-0.07685 -0.08395,-0.164386 -0.113151,-0.252764 -0.05585,-0.131715 -0.123042,-0.259988 -0.219875,-0.366702 -0.15,-0.15 -0.362132,0.06213 -0.212132,0.212132 z" /><path
         style="opacity:0.99;fill:#000000;fill-opacity:1;stroke:none;stroke-width:0.1;stroke-dasharray:none;stroke-opacity:1"
         id="path116"
         d="m 86.898108,39.694915 c 0.150538,-0.170571 0.305454,-0.337166 0.457664,-0.50623 0.02424,-0.02556 0.04848,-0.05112 0.07272,-0.07667 0.145907,-0.153985 -0.07186,-0.360328 -0.217768,-0.206344 v 0 c -0.02598,0.02744 -0.05196,0.05488 -0.07793,0.08232 -0.148646,0.165201 -0.300411,0.327586 -0.446813,0.494795 -0.15,0.15 0.06213,0.362132 0.212132,0.212132 z" /><path
         style="opacity:0.99;fill:#000000;fill-opacity:1;stroke:none;stroke-width:0.1;stroke-dasharray:none;stroke-opacity:1"
         id="path117"
         d="m 89.957441,39.190064 c 0.0011,-0.03694 0.02146,-0.06865 0.05232,-0.08331 -0.174467,-0.222612 -0.157218,-0.299434 -0.243129,-0.140764 -0.09527,0.189535 0.172771,0.324268 0.268042,0.134734 v 0 c 0.0011,-0.0085 0.01871,-0.01442 0.01405,-0.02164 -0.164314,-0.255198 -0.09038,-0.284554 -0.200408,-0.225179 -0.113475,0.07934 -0.187439,0.194533 -0.190881,0.336177 0,0.212133 0.3,0.212133 0.3,0 z" /><path
         style="opacity:0.99;fill:#000000;fill-opacity:1;stroke:none;stroke-width:0.1;stroke-dasharray:none;stroke-opacity:1"
         id="path118"
         d="m 91.168999,40.632636 c -0.02312,0.02196 -0.110156,-0.02236 -0.110593,-0.02212 -0.008,0.0043 -2.51e-4,0.01828 2.49e-4,0.0274 0.01082,0.197078 -0.0011,-0.0874 0.0078,0.141539 5.29e-4,0.02704 0.0011,0.05409 0.0013,0.08113 5.29e-4,0.0608 5.29e-4,0.122314 -0.0093,0.18257 -0.0016,0.0092 -0.009,0.03614 -0.0071,0.02702 0.0021,-0.01008 0.0052,-0.01995 0.0077,-0.02992 0.06671,-0.01543 0.131884,-0.04074 0.200128,-0.04625 0.01405,-0.0011 0.01953,0.02122 0.03217,0.02749 0.0066,0.0033 0.0029,-0.01746 0.0019,-0.05066 -0.0016,-0.0535 -0.0021,-0.03691 0.0029,-0.08219 0.01333,-0.06623 0.0045,0.04783 -0.07017,0.06638 -0.04579,0.01138 -0.09351,-0.01273 -0.140259,-0.0191 0.159483,0.139877 0.357296,-0.08567 0.197816,-0.225542 v 0 c -0.05357,-0.01236 -0.10651,-0.0462 -0.160726,-0.03705 -0.09142,0.01542 -0.115007,0.119026 -0.125593,0.190003 -0.0052,0.07184 -0.0113,0.348271 0.07945,0.368781 0.07528,0.01701 0.153591,-0.01537 0.230386,-0.02307 0.01228,-0.02424 0.02742,-0.04725 0.03687,-0.07273 0.0391,-0.105384 0.01767,-0.258808 0.02236,-0.368972 -0.0068,-0.161132 -0.0024,-0.374867 -0.195712,-0.426908 -0.02389,-0.0064 -0.04947,7.94e-4 -0.07421,0.0011 -0.205798,0.05145 -0.133035,0.342493 0.07276,0.291042 z" /><path
         style="opacity:0.99;fill:#000000;fill-opacity:1;stroke:none;stroke-width:0.1;stroke-dasharray:none;stroke-opacity:1"
         id="path119"
         d="m 92.693211,42.32286 c -0.02825,0.105741 -0.05667,0.2115 -0.08695,0.316706 -0.03084,0.121949 -0.02011,0.01103 0.281797,0.05966 0.0064,0.0011 -0.0028,0.02381 0.0021,0.01945 0.0098,-0.0088 0.0056,-0.02598 0.01119,-0.03792 -2.65e-4,0.0039 -0.0046,0.01019 -0.0011,0.01164 0.004,0.0016 0.0064,-0.0059 0.01019,-0.0079 0.0046,-0.0024 0.02024,-0.0035 0.01535,-0.0019 -0.05682,0.01918 -0.03731,0.01648 -0.09086,0.0048 -0.04891,-0.0477 -0.03239,-0.02901 -0.053,-0.05285 0.01384,0.21168 0.313198,0.192114 0.299363,-0.01958 v 0 c -0.01659,-0.1148 0.0031,-0.05403 -0.07728,-0.17539 -0.02931,-0.01349 -0.05614,-0.03491 -0.08791,-0.04049 -0.133954,-0.02355 -0.238477,0.07431 -0.297485,0.180821 -0.004,0.01206 -0.04588,0.137523 -0.02961,0.143849 0.268073,0.104219 0.273306,0.129506 0.305511,-0.0013 0.03118,-0.108582 0.06056,-0.217699 0.08967,-0.326832 0.05145,-0.205798 -0.239594,-0.278558 -0.291045,-0.07276 z" /><path
         style="opacity:0.99;fill:#000000;fill-opacity:1;stroke:none;stroke-width:0.1;stroke-dasharray:none;stroke-opacity:1"
         id="path120"
         d="m 91.490971,42.42069 c 0.0011,-0.0058 0.0016,-0.01156 0.0029,-0.01728 0.01707,-0.07793 0.02701,-0.0085 -0.02702,0.01037 -0.02953,0.01029 -0.06234,0.005 -0.09351,0.0075 -0.0677,-0.03583 -0.08232,-0.05742 -0.06756,-0.130974 -0.102092,0.185952 0.16088,0.330329 0.262972,0.14438 v 0 c 0.0092,-0.02492 0.02336,-0.04855 0.0277,-0.07478 0.01704,-0.103037 -0.03421,-0.15912 -0.111215,-0.216979 -0.04351,-0.0024 -0.08809,-0.01725 -0.130545,-0.0074 -0.119843,0.02782 -0.156192,0.18306 -0.163701,0.285146 0,0.212133 0.300001,0.212133 0.300001,0 z" /><path
         style="opacity:0.99;fill:#000000;fill-opacity:1;stroke:none;stroke-width:0.1;stroke-dasharray:none;stroke-opacity:1"
         id="path121"
         d="m 89.744787,42.397586 c 0.01794,0.02154 0.03367,0.05889 0.0024,0.07336 0.0063,-0.04252 0.04474,-0.04526 0.08155,-0.04821 0.0066,-5.29e-4 0.01304,0.0037 0.01963,0.003 0.0063,-7.94e-4 -7.94e-4,-0.01273 -0.0024,-0.01876 -0.09309,-0.190619 -0.362659,-0.05898 -0.269576,0.13164 v 0 c 0.01024,0.01926 0.01849,0.03971 0.0307,0.05779 0.0778,0.11525 0.218604,0.169714 0.342329,0.08276 0.02601,-0.01828 0.04291,-0.0469 0.06435,-0.07035 0.01114,-0.02506 0.02585,-0.0488 0.03339,-0.07516 0.03573,-0.125036 -0.0038,-0.25433 -0.09012,-0.348141 -0.15,-0.15 -0.362133,0.06213 -0.212132,0.212132 z" /><path
         style="opacity:0.99;fill:#000000;fill-opacity:1;stroke:none;stroke-width:0.1;stroke-dasharray:none;stroke-opacity:1"
         id="path122"
         d="m 90.022245,40.724885 c 0.0027,-0.0016 0.0064,-0.0021 0.008,-0.0047 0.02765,-0.04504 0.04642,-0.09151 0.08276,-0.13127 0.02461,-0.02693 0.02252,-0.02803 0.02328,-0.01175 -0.02069,0.03313 -0.07305,0.0031 -0.09237,0.01042 -0.0054,0.0021 -0.003,0.01836 -0.01003,0.02286 0.0035,-0.03887 -0.0024,-0.0173 0.02701,-0.06127 -0.165658,0.132504 0.02172,0.366779 0.187388,0.234276 v 0 c 0.07338,-0.08165 0.04595,-0.03588 0.08339,-0.136658 0.0016,-0.02432 0.0061,-0.0486 0.0048,-0.07292 -0.0073,-0.13168 -0.08682,-0.261445 -0.227957,-0.281138 -0.03482,-0.0049 -0.06959,0.01008 -0.104381,0.01511 -0.02537,0.01511 -0.05268,0.02733 -0.07611,0.04529 -0.0992,0.07605 -0.151738,0.202388 -0.199935,0.312905 -0.0416,0.208012 0.252574,0.266848 0.294174,0.05884 z" /><path
         style="opacity:0.99;fill:#000000;fill-opacity:1;stroke:none;stroke-width:0.1;stroke-dasharray:none;stroke-opacity:1"
         id="path123"
         d="m 91.039422,39.097301 c -0.01839,0.06739 -0.06268,0.136083 -0.06142,0.208105 5.29e-4,0.02474 0.0069,0.04898 0.01035,0.07347 0.04063,0.03629 0.07299,0.08485 0.121883,0.108863 0.02908,0.01429 0.06549,0.0055 0.09718,-0.0013 0.107564,-0.02281 0.163494,-0.111172 0.201091,-0.204134 0.0037,-0.02334 0.0074,-0.04668 0.01106,-0.07001 0.01971,-0.211214 -0.279003,-0.239075 -0.298704,-0.02786 v 0 c 0.0016,-5.3e-4 0.0031,-0.0013 0.0047,-0.0019 0.0042,0.02759 0.153678,-0.01632 0.151398,0.114528 -8.5e-5,0.01201 7.93e-4,0.0241 -2.6e-4,0.03606 -1.88e-4,0.0021 -0.0038,0.0071 -0.0035,0.0051 0.0056,-0.03686 0.0285,-0.06974 0.03456,-0.106744 0.09487,-0.189735 -0.173461,-0.3239 -0.268327,-0.134162 z" /><path
         style="opacity:0.99;fill:#000000;fill-opacity:1;stroke:none;stroke-width:0.1;stroke-dasharray:none;stroke-opacity:1"
         id="path124"
         d="m 92.75615,39.481272 c -0.0097,0.0159 0.04397,0.01048 0.05458,0.01699 0.0028,0.0019 -0.0064,0.0046 -0.0061,0.0079 5.29e-4,0.0053 0.0055,0.0092 0.0083,0.01387 0.05216,0.127367 -0.02944,0.03175 0.04712,-0.03523 0.03431,-0.03002 0.08645,-0.02901 0.129672,-0.04352 0.04526,0.02064 0.06569,0.04711 0.05432,0.0081 -0.0744,-0.198659 -0.355341,-0.09345 -0.280945,0.105212 v 0 c 0.03311,0.08265 0.05987,0.13109 0.146121,0.175681 0.05455,-0.01135 0.118232,-0.0019 0.163658,-0.03405 0.103426,-0.07347 0.04699,-0.243236 -0.0031,-0.32477 -0.01508,-0.02453 -0.03403,-0.04646 -0.05104,-0.06969 -0.02228,-0.01897 -0.04184,-0.04166 -0.06679,-0.05694 -0.117001,-0.07164 -0.257942,-0.06925 -0.375835,-0.0036 -0.169704,0.127277 0.01029,0.367278 0.180001,0.24 z" /><path
         style="opacity:0.99;fill:#000000;fill-opacity:1;stroke:none;stroke-width:0.1;stroke-dasharray:none;stroke-opacity:1"
         id="path125"
         d="m 92.541113,40.894036 c 0.02005,0.08794 0.05293,0.17358 0.06294,0.263533 -0.03428,-0.04571 0.06329,-0.07966 0.09512,-0.07781 0.01527,7.93e-4 0.02914,0.0093 0.04371,0.01392 0.02455,0.01865 0.01103,7.93e-4 0.01344,-0.01426 -0.03485,-0.209249 -0.330777,-0.159957 -0.295921,0.04929 v 0 c 0.01606,0.07572 0.03341,0.136753 0.08954,0.19471 0.02875,0.01654 0.05427,0.0408 0.08624,0.04965 0.125246,0.03468 0.233976,-0.06026 0.2598,-0.176771 0.0057,-0.02551 0.0036,-0.05212 0.0055,-0.07818 -0.01455,-0.100939 -0.04336,-0.19838 -0.06929,-0.296844 -0.05145,-0.205799 -0.342492,-0.133038 -0.291042,0.07276 z" /><image
         width="12.144376"
         height="13.454063"
         preserveAspectRatio="none"
         xlink:href="ikiteikou-logo.png"
         id="image1"
         x="90.738953"
         y="13.178118" /></g><use
       x="0"
       y="0"
       xlink:href="#g1"
       id="use1"
       transform="translate(91)" /><use
       x="0"
       y="0"
       xlink:href="#use1"
       id="use2"
       transform="translate(-91,55)" /><use
       x="0"
       y="0"
       xlink:href="#use2"
       id="use3"
       transform="translate(91)" /><use
       x="0"
       y="0"
       xlink:href="#use3"
       id="use4"
       transform="translate(-91,55)" /><use
       x="0"
       y="0"
       xlink:href="#use4"
       id="use5"
       transform="translate(91)" /><use
       x="0"
       y="0"
       xlink:href="#use5"
       id="use6"
       transform="translate(-91,55)" /><use
       x="0"
       y="0"
       xlink:href="#use6"
       id="use7"
       transform="translate(91)" /><use
       x="0"
       y="0"
       xlink:href="#use7"
       id="use8"
       transform="translate(-91,55)" /><use
       x="0"
       y="0"
       xlink:href="#use8"
       id="use9"
       transform="translate(91)" /></g></svg>
